<svg width="1440" height="600" viewBox="0 0 1440 600" fill="none" xmlns="http://www.w3.org/2000/svg">
<path d="M1440 0H0V600H1440V0Z" fill="white"/>
<path d="M257.515 599.439H68.7892L72.1228 509.063L72.2186 506.333L72.2426 505.763L227.436 498.84L249.722 497.849L250.369 506.282L253.214 543.378L253.218 543.434L254.248 556.911C254.248 556.916 254.248 556.916 254.248 556.916L254.703 562.782L257.515 599.439Z" fill="#E2B897"/>
<path d="M167.57 599.439H68.7174L70.4896 507.59L70.5279 505.758L72.2234 506.328L90.309 512.391L135.245 527.457C135.245 527.457 135.269 527.466 135.317 527.48L165.08 537.46L167.57 599.439Z" fill="#E2B897"/>
<path d="M186.944 267.538L132.702 273.741L131.37 238.098L131.279 235.644L131.102 230.956L175.483 225.879L178.371 225.552L180.795 237.434L186.944 267.538Z" fill="#F8BD8C"/>
<path d="M124.349 262.059C124.349 262.059 61.145 287.76 59.392 292.902C57.6342 298.043 50.6126 312.604 50.6126 312.604C50.6126 312.604 81.338 385.423 73.4352 410.268C65.5371 435.113 70.8009 476.234 70.8009 489.084C70.8009 501.934 65.5323 507.076 75.1882 510.503C84.844 513.929 116.446 512.218 134 510.503C151.554 508.787 187.548 511.031 195.446 512.48C203.349 513.929 250.747 506.216 250.747 506.216C250.747 506.216 256.892 473.663 255.134 457.382C253.376 441.105 255.767 402.55 255.45 396.558C255.134 390.56 258.458 387.99 255.479 373.429C252.5 358.863 267.424 279.191 267.424 279.191L194.565 253.276L124.349 262.059Z" fill="#31185E"/>
<path d="M157.359 259.054L148.244 288.802L108.136 269.052L117.854 259.054H157.359Z" fill="#2A1656"/>
<path d="M148.685 289.807L106.948 269.253L117.548 258.353H158.322L148.685 289.807ZM109.319 268.851L147.799 287.802L156.391 259.755H118.165L109.319 268.851Z" fill="#1D1647"/>
<path d="M149.538 259.054L161.828 288.802L207.583 257.362L196.653 245.867L149.538 259.054Z" fill="#2A1656"/>
<path d="M161.502 289.886L148.575 258.596L196.883 245.077L208.67 257.474L161.502 289.886ZM150.505 259.512L162.158 287.722L206.496 257.254L196.428 246.662L150.505 259.512Z" fill="#1D1647"/>
<path d="M81.8936 280.248C81.8936 280.248 108.898 290.457 106.421 393.809L204.795 371.774L216.856 420.412C216.856 420.412 108.898 466.006 80.8782 465.249C52.859 464.487 34.7254 339.852 40.4969 326.17C46.2636 312.492 47.849 293.004 80.816 280.846L81.8936 280.248Z" fill="#31185E"/>
<path d="M210.002 374.237L235.348 364.982L229.06 402.331L209.25 403.298L204.915 376.846L210.002 374.237Z" fill="#F8BD8C"/>
<path d="M130.978 389.728L110.267 394.389L109.439 389.49L108.074 381.366L109.491 381.885L130.978 389.728Z" fill="#F8BD8C"/>
<path d="M244.449 285.619L228.217 398.358L125.149 384.83L112.974 434.43C112.974 434.43 252.567 467.502 280.155 458.481C307.748 449.463 294.764 325.454 287.464 309.669C280.155 293.888 275.227 281.542 265.49 278.537C255.752 275.536 244.449 285.619 244.449 285.619Z" fill="#31185E"/>
<path d="M180.795 237.434C178.625 242.291 174.846 246.797 168.993 248.849C156.099 253.37 139.968 243.927 131.366 238.098L131.275 235.644C132.017 235.756 132.86 235.854 133.808 235.934C139.489 236.392 147.966 236.247 158.633 233.643C166.263 231.783 171.713 228.773 175.483 225.879L178.371 225.552L180.795 237.434Z" fill="#EAB186"/>
<path d="M187.079 179.536C189.445 208.738 175.306 233.709 153.336 235.406C131.366 237.102 111.637 214.801 109.271 185.599C106.905 156.398 122.797 131.352 144.767 129.655C166.737 127.963 184.712 150.335 187.079 179.536Z" fill="#F8BD8C"/>
<path d="M157.043 243.591C136.012 246.643 115.397 225.43 110.976 196.266C110.555 193.457 110.31 190.68 110.167 187.941C115.081 216.282 135.379 236.672 156.023 233.69C174.985 230.951 187.763 209.43 186.853 183.828C186.959 184.309 187.031 184.786 187.098 185.267C191.518 214.427 178.074 240.538 157.043 243.591Z" fill="#1A1A1A"/>
<path d="M125.815 114.991C125.815 114.991 125.565 136.695 131.102 139.836C136.639 142.977 142.971 137.265 148 136.41C153.029 135.554 163.202 134.708 170.334 140.771C177.461 146.834 183.582 164.513 183.582 164.513L185.148 170.435C185.148 170.435 189.315 171.459 189.756 165.892C190.197 160.324 189.023 136.975 189.756 134.694C190.489 132.408 190.197 130.127 187.562 127.556C184.928 124.985 181.566 120.989 182.586 119.273C183.611 117.558 187.998 113.136 183.755 109.279C179.511 105.423 159.031 102.997 155.228 106.423C151.415 109.85 137.223 96.7142 125.815 114.991Z" fill="#1A1A1A"/>
<path d="M121.935 116.632C121.935 116.632 101.967 118.773 101.526 135.909C101.526 135.909 99.1123 139.766 94.2844 145.978C89.4564 152.191 95.1609 162.685 96.478 168.897C97.7952 175.109 100.501 180.247 100.353 182.102C100.204 183.958 103.859 187.53 107.154 186.099C110.449 184.673 111.182 180.859 111.182 180.859C111.182 180.859 111.474 156.683 115.134 152.401C118.793 148.119 125.01 143.907 128.592 142.122C132.175 140.336 132.98 136.98 132.98 136.554C132.98 136.124 128.444 112.71 128.444 112.71L121.935 116.632Z" fill="#1A1A1A"/>
<path d="M117.543 190.04C120.292 195.56 119.286 201.572 115.287 203.47C111.292 205.367 105.823 202.427 103.069 196.907C100.319 191.386 101.325 185.375 105.324 183.477C109.319 181.579 114.789 184.519 117.543 190.04Z" fill="#F8BD8C"/>
<path d="M195.072 182.491C194.354 188.591 190.192 193.13 185.776 192.634C181.36 192.139 178.366 186.791 179.085 180.695C179.803 174.595 183.965 170.056 188.381 170.552C192.797 171.043 195.791 176.39 195.072 182.491Z" fill="#F8BD8C"/>
<path d="M134.829 171.445C132.098 171.613 129.206 171.968 126.495 172.52C123.788 173.071 121.073 173.866 119.047 175.091L118.946 175.152C117.873 175.801 116.47 175.479 115.804 174.432C115.153 173.403 115.459 172.057 116.494 171.393C119.43 169.514 122.443 168.649 125.431 167.916C128.449 167.214 131.385 166.761 134.508 166.476C135.911 166.35 137.152 167.355 137.286 168.72C137.415 170.089 136.385 171.3 134.987 171.426C134.963 171.426 134.944 171.431 134.92 171.431L134.829 171.445Z" fill="#1A1A1A"/>
<path d="M132.506 182.051C132.827 184.178 131.6 186.118 129.761 186.385C127.922 186.651 126.169 185.141 125.848 183.014C125.527 180.887 126.753 178.947 128.592 178.681C130.432 178.414 132.185 179.924 132.506 182.051Z" fill="#1A1A1A"/>
<path d="M158.025 168.738C160.726 168.299 163.619 168.004 166.392 167.944C169.156 167.883 171.987 168.051 174.242 168.799L174.357 168.836C175.55 169.229 176.848 168.607 177.25 167.439C177.648 166.294 177.03 165.05 175.876 164.634C172.58 163.451 169.443 163.279 166.359 163.227C163.26 163.208 160.29 163.419 157.187 163.835C155.793 164.022 154.816 165.275 155.003 166.635C155.194 167.995 156.478 168.949 157.871 168.762C157.895 168.757 157.915 168.757 157.939 168.752L158.025 168.738Z" fill="#1A1A1A"/>
<path d="M162.752 178.555C162.934 180.7 164.582 182.318 166.43 182.168C168.284 182.019 169.64 180.163 169.458 178.017C169.276 175.872 167.628 174.254 165.779 174.404C163.925 174.553 162.57 176.414 162.752 178.555Z" fill="#1A1A1A"/>
<path d="M137.516 230.254C138.67 231.021 142.688 230.077 143.986 229.806C146.199 229.347 148.728 228.525 150.117 226.655C151.702 224.514 150.965 221.293 150.768 218.849C150.711 218.152 150.836 216.226 150.242 215.651C150.242 215.651 156.042 214.801 156.095 214.796C155.577 214.871 157.129 222.85 157.373 223.5C158.034 225.239 159.821 226.22 161.583 226.655C163.423 227.108 165.425 227.16 167.307 227.024C167.772 226.992 172.303 226.613 172.346 226.15C172.312 226.543 172.015 226.856 171.737 227.136C168.782 230.091 165.511 232.741 162.24 235.354C162.24 235.354 146.731 236.64 146.295 236.21C145.859 235.789 137.535 230.268 137.516 230.254Z" fill="#1A1A1A"/>
<path d="M166.397 209.229C164.361 212.758 160.041 215.707 154.6 216.731C147.368 218.101 140.624 215.703 138.028 211.248C138.028 211.178 138.1 211.112 138.167 211.042C139.082 210.29 140.03 209.64 141.046 209.088L162.288 206.62C163.94 206.966 165.415 207.583 166.397 209.229Z" fill="#FCFCFC"/>
<path d="M136.141 233.082C135.686 228.763 134.421 214.945 136.27 210.832V210.551L136.902 209.855C138.071 208.878 139.106 208.177 140.203 207.588C143.646 205.62 147.938 204.484 152.574 204.325C155.122 204.213 157.632 204.302 160.041 204.573L160.64 204.643C161.325 204.722 161.995 204.802 162.671 204.942C164.371 205.297 166.517 206.003 167.92 208.359C169.376 210.79 170.004 213.417 170.607 215.96C170.76 216.614 170.918 217.269 171.086 217.914C172.101 221.868 172.418 225.215 172.077 228.45L168.586 228.099C168.878 225.271 168.591 222.303 167.681 218.75C167.508 218.087 167.35 217.409 167.182 216.731C166.613 214.333 166.076 212.066 164.883 210.084C164.309 209.112 163.475 208.612 161.928 208.289C161.358 208.167 160.798 208.107 160.233 208.041L159.62 207.971C157.416 207.719 155.089 207.639 152.718 207.742C148.647 207.882 144.92 208.855 141.941 210.556C141.079 211.019 140.289 211.547 139.494 212.187L139.465 212.225C138.445 213.753 138.732 224.056 139.642 232.722L136.141 233.082Z" fill="#1A1A1A"/>
<path d="M146.175 197.01C146.003 197.01 145.84 196.921 145.754 196.762C145.629 196.533 145.72 196.252 145.95 196.131L149.724 194.167C150.927 193.546 151.592 192.415 151.425 191.293L149.509 178.312C149.47 178.055 149.652 177.821 149.916 177.783C150.175 177.751 150.419 177.924 150.457 178.181L152.373 191.162C152.598 192.681 151.731 194.186 150.175 194.995L146.4 196.958C146.328 196.996 146.252 197.01 146.175 197.01Z" fill="#1A1A1A"/>
<path d="M167.733 582.368C167.216 582.368 166.79 581.966 166.775 581.457C166.402 565.979 165.43 540.835 164.39 538.148C160.908 536.124 143.713 530.883 134.972 528.359C134.465 528.214 134.177 527.691 134.326 527.195C134.474 526.7 135.011 526.419 135.518 526.564C136.577 526.873 161.545 534.099 165.602 536.68C166.234 537.082 167.024 537.587 167.968 559.795C168.423 570.542 168.686 581.307 168.691 581.414C168.706 581.929 168.284 582.359 167.757 582.373C167.748 582.368 167.743 582.368 167.733 582.368Z" fill="#666B6D"/>
<path d="M109.032 395.324C108.83 395.324 108.634 395.263 108.466 395.146C108.232 394.978 108.088 394.716 108.074 394.436C107.935 391.654 104.098 347.252 104.06 346.803C104.017 346.289 104.405 345.835 104.932 345.793C105.459 345.751 105.923 346.13 105.966 346.649C106.115 348.35 109.343 385.718 109.908 393.197C115.277 391.794 138.335 385.802 147.564 384.021C148.081 383.918 148.589 384.25 148.69 384.755C148.79 385.26 148.455 385.755 147.938 385.853C137.578 387.854 109.563 395.221 109.286 395.296C109.199 395.314 109.118 395.324 109.032 395.324Z" fill="#1D1647"/>
<path d="M83.9388 464.296C80.9022 464.296 78.129 463.992 75.8444 463.263C62.1029 458.869 52.7009 422.824 52.3081 421.29C52.1788 420.79 52.4901 420.281 53.0026 420.155C53.5151 420.028 54.0372 420.332 54.1665 420.832C54.2623 421.197 63.6979 457.405 76.4431 461.482C89.3798 465.618 120.555 454.834 120.867 454.727C121.365 454.549 121.911 454.806 122.093 455.293C122.27 455.779 122.012 456.312 121.513 456.489C120.426 456.868 98.9399 464.296 83.9388 464.296Z" fill="#1D1647"/>
<path d="M159.026 443.148C158.676 443.148 158.336 442.961 158.168 442.634C157.934 442.171 158.12 441.61 158.595 441.381L187.749 427.124C188.223 426.89 188.798 427.082 189.033 427.54C189.267 428.003 189.081 428.564 188.606 428.793L159.452 443.05C159.318 443.115 159.169 443.148 159.026 443.148Z" fill="#1D1647"/>
<path d="M227.292 398.83C227.24 398.83 227.192 398.825 227.139 398.816C226.617 398.736 226.262 398.255 226.344 397.745L234.4 348.687C234.481 348.177 234.98 347.826 235.497 347.911C236.019 347.99 236.373 348.472 236.292 348.981L228.236 398.04C228.164 398.502 227.757 398.83 227.292 398.83Z" fill="#1D1647"/>
<path d="M241.45 459.359C241.402 459.359 241.35 459.355 241.302 459.35L193.013 452.034C192.491 451.955 192.132 451.478 192.213 450.969C192.294 450.459 192.783 450.109 193.305 450.188L241.594 457.504C242.116 457.583 242.475 458.06 242.394 458.569C242.322 459.027 241.915 459.359 241.45 459.359Z" fill="#1D1647"/>
<path d="M483.139 171.716L474.437 202.75L493.207 224.196L520.024 211.075L518.899 178.391L483.139 171.716Z" fill="#F8BD8C"/>
<path d="M578.96 445.56V599.439H498.993V449.459L573.716 445.817L578.96 445.56Z" fill="#31185E"/>
<path d="M524.981 452.712L522.246 460.098L519.555 467.39L510.493 491.87L498.988 522.951L480.519 599.444H408.177C408.22 599.659 408.239 599.766 408.239 599.766L398.305 600L398.372 599.439L402.357 568.111L402.942 563.516L404.503 551.227L405.969 539.723L407.075 531.028L412.248 490.337L413.656 479.263L417.033 452.712H524.981Z" fill="#31185E"/>
<path d="M476.486 197.047C476.486 197.047 437.173 220.471 419.844 228.702C402.52 236.934 391.193 248.961 387.194 255.926C383.194 262.891 373.864 269.221 374.535 273.652C375.2 278.083 359.208 297.076 355.874 312.903C352.541 328.731 346.544 381.277 346.544 383.175C346.544 385.073 357.206 428.755 357.206 428.755C357.206 428.755 388.525 459.144 395.187 466.109C401.85 473.074 421.842 484.47 424.509 484.47C427.177 484.47 443.836 473.71 443.17 462.945C442.504 452.184 437.839 421.164 433.174 416.097C429.524 412.138 425.065 408.562 421.698 403.256C420.759 401.779 419.907 400.162 419.179 398.371C415.845 390.14 425.175 370.516 425.175 370.516C425.175 370.516 455.163 300.876 453.827 291.382C452.495 281.884 462.491 248.335 459.823 239.472C457.16 230.6 476.486 197.047 476.486 197.047Z" fill="#C5A2FD"/>
<path d="M582.438 282.477C582.438 282.477 589.1 371.774 588.434 386.97C587.769 402.162 584.531 411.025 588.482 428.12C592.434 445.214 590.527 450.277 588.482 456.606C586.437 462.935 561.114 462.304 561.114 462.304L442.456 455.559L397.855 392.664L455.829 216.67L476.486 197.047C476.486 197.047 500.142 216.67 519.799 204.961C519.799 204.961 574.439 235.031 582.102 240.73C589.766 246.428 582.438 282.477 582.438 282.477Z" fill="#C5A2FD"/>
<path d="M582.883 243.053C582.883 243.053 601.984 261.625 601.544 273.862C601.098 286.1 606.429 331.681 605.543 344.765C604.657 357.848 606.874 358.269 608.651 367.978C610.428 377.687 617.756 397.1 618.427 418.626C619.093 440.152 628.753 455.662 622.091 466.422C615.429 477.183 610.428 480.348 610.428 480.348C610.428 480.348 608.761 463.921 605.763 462.323C602.765 460.724 588.482 456.606 588.482 456.606L572.667 286.1L582.883 243.053Z" fill="#C5A2FD"/>
<path d="M478.843 176.035C476.927 171.674 491.622 200.179 506.623 198.58C519.488 197.21 520.024 174.002 520.024 174.002C520.024 174.002 515.455 181.331 501.876 181.35C486.731 181.369 478.843 176.035 478.843 176.035Z" fill="#EAB186"/>
<path d="M546.65 139.121C546.305 145.385 542.047 150.251 537.147 149.994C532.242 149.736 528.55 144.45 528.899 138.186C529.244 131.922 533.502 127.056 538.402 127.313C543.302 127.57 546.995 132.857 546.65 139.121Z" fill="#F2B588"/>
<path d="M475.634 135.292C475.289 141.556 471.031 146.422 466.131 146.165C461.227 145.908 457.534 140.621 457.884 134.358C458.228 128.094 462.486 123.228 467.386 123.485C472.286 123.742 475.979 129.029 475.634 135.292Z" fill="#F2B588"/>
<path d="M542.645 138.822C537.995 165.489 522.151 188.399 500.315 187.249C478.479 186.099 467.017 166.251 463.569 134.652C460.547 106.932 484.064 85.0745 505.899 86.2245C527.735 87.3744 547.445 111.312 542.645 138.822Z" fill="#F8BD8C"/>
<path d="M492.527 96.7093C492.589 98.4715 492.311 101.314 492.489 102.169C492.972 104.525 494.242 106.82 496.296 107.909C497.714 108.662 499.357 108.774 500.947 108.816C506.747 108.966 512.806 106.526 518.372 106.778C520.934 106.895 522.879 108.704 525.053 110.125C529.077 112.743 536.476 112.13 536.481 112.13C540.275 117.305 540.639 125.018 544.509 129.8C545.438 129.234 546.276 128.491 547.153 127.776C552.354 123.503 552.661 122.727 550.975 116.024C549.624 110.658 553.322 108.367 555.194 104.067C557.762 98.1677 562.23 92.7079 557.68 88.1129C551.765 82.1389 547.464 77.3383 543.694 69.5226C541.592 65.1613 538.771 60.398 534.158 59.5613C526.72 58.2104 521.059 66.185 513.573 61.3189C510.847 59.5473 508.227 57.2614 505.033 56.8641C501.718 56.4481 498.48 58.173 495.784 60.2531C492.417 62.8474 489.361 65.8905 485.433 67.5546C478.953 70.3032 471.505 71.4017 466.184 76.5343C462.625 79.9653 460.666 84.6211 458.87 89.2114C457.352 93.1006 454.655 97.574 454.263 101.758C453.817 106.465 456.629 116.552 460.446 119.53C462.29 120.97 463.65 124.405 463.65 124.405C463.65 124.405 469.518 113.865 470.504 111.457C471.491 109.05 476.324 102.828 479.652 100.542C482.981 98.2612 484.097 97.4245 486.722 96.2231C488.456 95.4191 492.417 93.5493 492.527 96.7093Z" fill="#31185E"/>
<path d="M485.275 133.521C485.175 135.372 483.551 136.793 481.654 136.695C479.758 136.597 478.302 135.012 478.402 133.161C478.503 131.31 480.127 129.889 482.023 129.987C483.925 130.085 485.381 131.665 485.275 133.521Z" fill="#1B191B"/>
<path d="M526.323 135.68C526.222 137.531 524.598 138.953 522.702 138.854C520.805 138.756 519.349 137.172 519.449 135.32C519.55 133.469 521.174 132.048 523.07 132.146C524.967 132.245 526.423 133.829 526.323 135.68Z" fill="#1B191B"/>
<path d="M473.574 123.854C472.679 123.849 471.831 123.33 471.462 122.47C470.974 121.325 471.529 120.007 472.703 119.525C483.805 115.014 492.192 119.334 492.541 119.516C493.662 120.11 494.079 121.475 493.475 122.568C492.867 123.658 491.483 124.069 490.357 123.48C490.036 123.316 483.436 120.035 474.475 123.681C474.183 123.802 473.876 123.859 473.574 123.854Z" fill="#31185E"/>
<path d="M515.335 125.284C514.439 125.224 513.625 124.653 513.319 123.774C512.902 122.601 513.544 121.32 514.746 120.914C526.117 117.095 534.206 121.923 534.546 122.129C535.629 122.788 535.954 124.181 535.279 125.233C534.604 126.285 533.196 126.607 532.108 125.953C531.802 125.766 525.422 122.087 516.245 125.177C515.943 125.266 515.632 125.303 515.335 125.284Z" fill="#31185E"/>
<path d="M543.958 129.066C543.958 129.061 543.958 129.061 543.958 129.066C543.881 128.575 543.642 128.126 543.297 127.781C543.216 127.696 543.124 127.622 543.029 127.556C543.029 127.551 543.024 127.551 543.024 127.551C542.842 127.416 542.646 127.308 542.43 127.229C541.621 126.93 540.495 126.584 539.015 126.266C538.143 126.074 536.75 125.817 535.025 125.551C533.373 125.289 531.414 125.018 529.321 124.794H529.306C526.313 124.471 523.042 124.233 519.986 124.237H519.981C518.314 124.242 516.71 124.317 515.249 124.49C514.77 124.55 514.32 124.607 513.903 124.672C508.395 125.499 508.146 126.818 508.194 127.551C508.203 127.668 508.079 127.738 507.978 127.678C506.824 126.977 505.464 126.687 504.132 126.612C502.805 126.546 501.416 126.691 500.19 127.266C500.085 127.318 499.97 127.234 499.989 127.117C500.128 126.341 499.984 124.85 493.303 123.33C493.174 123.298 493.039 123.27 492.905 123.246C491.2 122.886 489.289 122.629 487.301 122.461H487.297C484.964 122.26 482.531 122.171 480.213 122.157H480.208C476.783 122.129 473.627 122.265 471.433 122.419C470.586 122.48 469.891 122.536 469.374 122.597C467.779 122.774 466.553 123.017 465.671 123.232C465.212 123.344 464.824 123.588 464.532 123.924L464.527 123.929C464.182 124.307 463.966 124.789 463.938 125.317C463.938 125.359 463.933 125.401 463.933 125.443C463.933 126.336 464.445 127.187 465.293 127.528C465.643 127.668 466.012 127.916 466.332 128.337C467.18 129.44 467.396 130.38 468.411 130.842C468.469 130.866 468.497 130.912 468.493 130.969C468.335 133.152 468.358 136.872 469.235 139.686C469.795 141.467 470.619 142.879 471.788 143.992C472.899 145.067 474.331 145.861 476.137 146.441C477.895 147.007 479.925 147.348 481.947 147.451C484.068 147.563 486.185 147.418 487.977 146.997C491.861 146.081 494.816 143.384 496.282 139.411C497.618 135.793 498.16 132.235 498.064 130.155C498.37 130.249 498.648 130.193 498.926 129.959L498.964 129.954C499.022 129.907 499.093 129.856 499.146 129.795C499.611 129.375 501.096 128.318 504.022 128.468C506.953 128.627 508.304 129.828 508.721 130.295C508.769 130.361 508.716 130.417 508.764 130.473H508.673C508.883 130.679 509.185 130.786 509.463 130.782C509.554 130.782 509.631 130.842 509.621 130.936C509.338 133.021 509.578 136.526 510.478 140.163C511.499 144.272 514.162 147.264 517.926 148.582C519.655 149.19 521.758 149.554 523.88 149.666C525.906 149.774 527.965 149.648 529.766 149.274C530.897 149.035 531.902 148.703 532.793 148.269C534.882 147.245 536.342 145.637 537.372 143.281C538.555 140.575 538.977 136.882 539.058 134.694C539.058 134.633 539.101 134.591 539.154 134.573C540.208 134.222 540.433 133.306 541.395 132.296C541.731 131.945 542.08 131.74 542.396 131.628C542.775 131.497 543.105 131.277 543.364 130.997C543.579 130.758 543.752 130.473 543.852 130.169C543.92 129.978 543.958 129.772 543.972 129.562C543.972 129.519 543.977 129.482 543.977 129.435C543.987 129.295 543.977 129.178 543.958 129.066ZM495.506 139.139C494.136 142.865 491.392 145.385 487.776 146.231C484.437 147.021 479.873 146.801 476.419 145.693C474.719 145.146 473.388 144.412 472.358 143.417C471.309 142.402 470.571 141.107 470.054 139.457C469.096 136.4 469.216 132.207 469.427 130.286V130.267C469.728 129.052 470.48 126.747 472.099 125.551C472.334 125.378 472.588 125.233 472.861 125.107C475.768 123.84 481.899 123.256 487.915 124.541C493.935 125.827 496.205 127.374 497.082 129.099C497.111 129.16 497.144 129.22 497.178 129.281C497.551 130.88 497.034 135.012 495.506 139.139ZM538.253 133.918C538.249 135.844 537.904 140.028 536.615 142.968C535.614 145.254 534.23 146.754 532.18 147.684C531.419 148.03 530.561 148.301 529.603 148.502C526.049 149.241 521.485 148.975 518.252 147.839C514.76 146.619 512.308 143.823 511.35 139.976C510.292 135.713 510.234 131.548 510.775 130.001C510.818 129.949 510.852 129.893 510.89 129.833C511.949 128.211 514.377 126.911 520.503 126.266C526.198 125.663 531.807 126.677 534.781 128.084C535.006 128.187 535.217 128.299 535.408 128.407C537.449 129.571 538.071 132.474 538.253 133.895V133.918Z" fill="#1B191B"/>
<path d="M500.617 168.687C496.335 168.687 493.399 166.761 493.351 166.733C493.188 166.621 493.145 166.406 493.26 166.247C493.375 166.088 493.595 166.046 493.758 166.158C494.05 166.354 500.981 170.865 509.152 165.129C509.315 165.017 509.535 165.05 509.655 165.209C509.77 165.368 509.736 165.588 509.573 165.7C506.326 167.976 503.222 168.687 500.617 168.687Z" fill="black"/>
<path d="M501.488 155.771C501.421 155.771 501.354 155.752 501.297 155.715C501.225 155.673 499.563 154.621 499.424 153.326C499.304 152.167 499.798 146.287 499.822 146.039C499.836 145.847 500.013 145.702 500.209 145.716C500.406 145.73 500.554 145.903 500.54 146.095C500.363 148.189 500.051 152.378 500.142 153.252C500.224 154.046 501.282 154.869 501.685 155.117C501.852 155.22 501.9 155.439 501.795 155.603C501.723 155.715 501.608 155.771 501.488 155.771Z" fill="black"/>
<path d="M415.433 330.302C415.294 330.302 415.155 330.274 415.026 330.213C414.547 329.993 414.346 329.432 414.571 328.97C415.615 326.819 424.337 301.315 424.486 299.352C424.524 298.838 424.988 298.45 425.511 298.487C426.037 298.525 426.435 298.974 426.397 299.488C426.219 301.825 417.234 327.848 416.3 329.764C416.137 330.101 415.792 330.302 415.433 330.302Z" fill="#9E4AFF"/>
<path d="M506.723 209.878C503.007 209.878 498.504 209.205 493.197 207.317C492.503 207.069 482.756 202.221 480.807 201.249C480.337 201.015 480.15 200.45 480.39 199.992C480.629 199.534 481.209 199.347 481.678 199.585C486.085 201.777 493.288 205.344 493.858 205.564C510.9 211.622 519.061 204.362 519.138 204.288C519.521 203.932 520.129 203.951 520.489 204.32C520.853 204.694 520.838 205.283 520.46 205.638C520.206 205.872 515.78 209.878 506.723 209.878Z" fill="#9E4AFF"/>
<path d="M498.993 523.881C498.883 523.881 498.773 523.862 498.667 523.825C498.169 523.647 497.911 523.114 498.093 522.628L509.592 491.543C509.774 491.057 510.32 490.804 510.819 490.982C511.317 491.16 511.575 491.692 511.393 492.179L499.893 523.264C499.754 523.647 499.386 523.881 498.993 523.881Z" fill="#9E4AFF"/>
<path d="M833.96 231.582L776.638 232.573L780.69 186.847H828.897L833.96 231.582Z" fill="#F8BD8C"/>
<path d="M845.589 152.812C845.589 182.687 827.159 206.905 804.427 206.905C781.696 206.905 763.265 182.687 763.265 152.812C763.265 140.411 760.209 121.409 765.55 112.285C773.074 99.4297 791.126 98.7192 804.422 98.7192C817.647 98.7192 833.304 95.7135 840.833 108.451C846.25 117.609 845.589 140.317 845.589 152.812Z" fill="#1A1A1A"/>
<path d="M851.859 130.066C851.859 130.066 856.251 88.1409 849.493 81.2087C842.739 74.2764 846.504 72.2944 839.219 70.3125C831.934 68.3305 831.829 64.6984 819.821 64.6984C817.752 64.6984 816.746 63.3802 805.256 63.3802C801.539 63.3802 795.461 60.4072 786.849 65.0303C778.237 69.6533 772.749 63.2166 766.546 71.0136C760.339 78.8153 757.977 74.6036 752.575 86.818C747.172 99.0324 754.265 104.974 755.616 118.179C756.967 131.384 764.07 141.949 764.07 141.949L849.938 139.261L851.859 130.066Z" fill="#1A1A1A"/>
<path d="M845.589 144.033C845.589 173.908 827.159 198.126 804.427 198.126C781.696 198.126 763.265 173.908 763.265 144.033C763.265 131.632 760.209 112.63 765.55 103.506C773.074 90.651 791.126 89.9405 804.422 89.9405C817.647 89.9405 833.304 86.9348 840.833 99.6728C846.25 108.835 845.589 131.543 845.589 144.033Z" fill="#F8BD8C"/>
<path d="M771.637 147.072C772.169 153.42 769.214 158.838 765.033 159.174C760.851 159.511 757.029 154.635 756.493 148.287C755.961 141.939 758.916 136.522 763.098 136.185C767.284 135.853 771.106 140.724 771.637 147.072Z" fill="#F8BD8C"/>
<path d="M836.498 146.604C835.555 152.906 838.156 158.496 842.308 159.09C846.461 159.684 850.59 155.056 851.533 148.755C852.477 142.454 849.876 136.863 845.723 136.269C841.575 135.676 837.442 140.303 836.498 146.604Z" fill="#F8BD8C"/>
<path d="M792.199 116.95C791.203 116.922 790.331 116.95 789.412 116.982C788.502 117.015 787.596 117.081 786.691 117.165C784.881 117.338 783.075 117.581 781.279 117.922C779.478 118.277 777.682 118.707 775.919 119.306C774.152 119.918 772.413 120.689 770.785 121.708C770.014 122.194 769.621 123.129 769.884 124.031C770.205 125.139 771.388 125.78 772.523 125.467L772.634 125.434C774.157 125.008 775.723 124.677 777.313 124.387C778.913 124.12 780.541 123.901 782.179 123.732C783.827 123.578 785.484 123.466 787.146 123.391C787.98 123.349 788.813 123.326 789.642 123.302C790.461 123.27 791.332 123.27 792.075 123.26H792.166C793.88 123.232 795.289 121.891 795.341 120.198C795.389 118.46 793.986 117.006 792.199 116.95Z" fill="#1A1A1A"/>
<path d="M835.191 121.713C833.562 120.689 831.819 119.923 830.056 119.31C828.289 118.712 826.493 118.282 824.697 117.927C822.901 117.581 821.09 117.338 819.285 117.169C818.379 117.085 817.474 117.02 816.564 116.987C815.64 116.954 814.773 116.926 813.777 116.954C812.062 117.006 810.668 118.366 810.639 120.058C810.611 121.802 812.038 123.237 813.82 123.265H813.901C814.643 123.274 815.515 123.274 816.334 123.307C817.163 123.335 817.996 123.358 818.83 123.396C820.492 123.47 822.154 123.583 823.796 123.737C825.439 123.91 827.063 124.125 828.663 124.391C830.253 124.681 831.814 125.013 833.342 125.438L833.457 125.471C834.338 125.714 835.315 125.382 835.837 124.592C836.47 123.625 836.182 122.335 835.191 121.713Z" fill="#1A1A1A"/>
<path d="M786.682 138.317C786.682 140.322 785.34 141.949 783.683 141.949C782.026 141.949 780.685 140.322 780.685 138.317C780.685 136.311 782.026 134.685 783.683 134.685C785.34 134.685 786.682 136.311 786.682 138.317Z" fill="#1A1A1A"/>
<path d="M825.813 138.317C825.813 140.322 824.472 141.949 822.815 141.949C821.157 141.949 819.816 140.322 819.816 138.317C819.816 136.311 821.157 134.685 822.815 134.685C824.472 134.685 825.813 136.311 825.813 138.317Z" fill="#1A1A1A"/>
<path d="M804.494 160.422C804.489 160.422 804.489 160.422 804.485 160.422C804.044 160.403 800.164 160.198 799.288 158.992C799.101 158.735 799.053 158.44 799.149 158.141C799.681 156.439 801.664 145.197 801.683 145.085C801.707 144.959 801.826 144.875 801.96 144.893C802.09 144.917 802.181 145.038 802.157 145.165C802.075 145.627 800.15 156.552 799.609 158.277C799.556 158.44 799.58 158.58 799.681 158.721C800.308 159.59 803.378 159.908 804.509 159.955C804.643 159.959 804.743 160.071 804.738 160.198C804.729 160.324 804.624 160.422 804.494 160.422Z" fill="#2C2A30"/>
<path d="M758.222 94.5636C758.222 94.5636 767.432 107.502 776.025 105.231C784.612 102.959 789.493 93.3622 793.564 97.7048C797.635 102.047 804.691 101.346 810.199 97.9572C815.707 94.5682 813.906 98.9202 821.138 100.028C828.37 101.136 831.886 98.9435 837.179 105.497C842.476 112.046 847.898 108.919 846.092 100.028C844.282 91.1372 831.987 72.0514 821.138 77.5018C810.29 82.9616 758.222 94.5636 758.222 94.5636Z" fill="#1A1A1A"/>
<path d="M845.474 125.457C845.297 125.406 845.12 125.368 844.938 125.326C842.179 124.7 839.147 124.321 836.058 124.13C832.925 123.938 829.731 123.938 826.689 124.092C826.684 124.092 826.684 124.092 826.68 124.092C820.731 124.391 815.362 125.247 812.191 126.266C809.619 127.093 806.587 128.271 804.006 128.271C801.429 128.271 798.397 127.093 795.825 126.266C792.376 125.158 786.337 124.242 779.765 124.027H779.761C779.756 124.027 779.756 124.027 779.751 124.027C776.537 123.924 773.194 123.985 769.971 124.279C767.355 124.513 764.822 124.896 762.499 125.466C762.489 125.466 762.48 125.466 762.475 125.471C761.747 125.649 761.043 125.84 760.358 126.051L760.688 132.034C760.688 132.034 761.617 131.838 762.422 132.385C762.561 132.478 762.695 132.595 762.82 132.74C763.035 132.988 763.227 133.32 763.361 133.759C763.514 134.259 763.715 135.119 763.964 136.194C764.343 137.793 764.831 139.864 765.459 141.902C766.22 144.398 767.188 146.843 768.38 148.325C769.228 149.372 770.315 150.176 771.546 150.788C775.392 152.709 780.651 152.765 784.517 152.602C791.375 152.312 795.873 149.334 797.789 144.286C798.244 143.089 798.646 141.935 799.02 140.855C800.227 137.358 801.079 134.591 802.013 133.549C802.679 132.81 803.421 132.754 804.006 132.754C804.595 132.754 805.337 132.81 806.003 133.549C806.908 134.558 807.742 137.195 808.886 140.546C809.289 141.72 809.734 142.977 810.227 144.286C812.143 149.33 816.641 152.312 823.499 152.602C827.341 152.761 832.566 152.709 836.398 150.821C837.653 150.208 838.764 149.395 839.626 148.329C841.211 146.371 842.39 142.701 843.237 139.476C843.539 138.34 843.798 137.255 844.018 136.325C844.282 135.199 844.488 134.287 844.65 133.768C844.828 133.193 845.101 132.801 845.407 132.534C845.469 132.473 845.536 132.427 845.604 132.385C846.403 131.842 847.318 132.043 847.318 132.043L847.649 126.06C846.954 125.831 846.226 125.63 845.474 125.457ZM794.719 144.286C792.875 147.675 789.776 149.404 785.13 149.979C780.489 150.554 774.928 149.666 772.131 148.035C771.973 147.946 771.824 147.838 771.676 147.726C770.133 146.516 769.142 144.052 768.491 141.804C768.237 140.902 768.031 140.041 767.877 139.308C767.791 138.901 767.691 138.429 767.6 137.905V137.901C767.063 134.904 766.68 130.37 769.128 128.715C772.001 126.766 779.234 126.621 784.023 126.911C787.635 127.126 795.447 128.065 796.922 130.8C797.985 132.768 797.152 137.447 796.045 140.939C795.614 142.318 795.14 143.51 794.719 144.286ZM840.134 139.312C840.115 139.396 840.095 139.485 840.076 139.569C839.511 142.136 838.438 146.034 836.374 147.694C836.216 147.824 836.053 147.937 835.881 148.035C833.074 149.666 827.523 150.554 822.882 149.979C818.236 149.404 815.137 147.675 813.298 144.286C812.828 143.426 812.287 142.037 811.808 140.457C810.788 137.026 810.074 132.684 811.085 130.809C812.565 128.07 820.377 127.135 823.988 126.92C828.778 126.63 836.01 126.775 838.884 128.725C841.475 130.477 840.89 135.465 840.316 138.433C840.253 138.747 840.186 139.046 840.134 139.312Z" fill="#1A1A1A"/>
<path d="M893.059 232.554C893.059 232.554 927.013 246.269 933.939 254.271C940.869 262.274 964.429 330.582 964.429 366.426C964.429 402.27 969.971 457.302 964.429 467.661C958.883 478.019 933.939 529.382 917.309 541.237C900.679 553.091 893.864 552.203 893.864 552.203L889.797 498.849L907.61 414.447L898.572 287.268L893.059 232.554Z" fill="#E2B897"/>
<path d="M803.263 523.46C801.558 531.229 799.393 561.702 797.415 595.213C797.338 596.62 797.252 598.027 797.171 599.443H711.106C710.163 548.454 711.92 499.484 711.92 499.484C711.92 499.484 712.73 499.527 714.195 499.611C714.943 499.662 715.862 499.714 716.935 499.788C717.036 499.798 717.141 499.802 717.251 499.812C717.27 499.812 717.29 499.812 717.309 499.816C725.121 500.34 740.376 501.546 755.903 503.79C764.017 504.963 772.207 506.417 779.449 508.207C789.608 510.713 797.904 513.877 801.486 517.841C801.735 518.117 801.961 518.393 802.166 518.673V518.678C802.301 518.869 802.425 519.052 802.54 519.248C803.316 520.566 803.594 521.969 803.263 523.46Z" fill="#755FAA"/>
<path d="M893.864 508.202V599.439H798.593L797.77 595.835L797.415 595.208L778.688 561.632L757.206 523.628L753.662 517.355L753.26 516.64L748.484 508.202H893.864Z" fill="#755FAA"/>
<path d="M776.638 209.298H833.965L841.393 222.377L893.064 232.404C893.064 232.404 927.511 248.536 928.521 251.153C929.537 253.771 941.693 388.924 936.625 422.061C931.558 455.194 934.599 491.818 929.532 508.385C924.465 524.951 719.818 515.359 719.818 515.359C719.818 515.359 678.283 269.463 691.45 258.128C704.616 246.792 770.809 229.207 773.002 225.43C775.201 221.648 776.638 209.298 776.638 209.298Z" fill="#FF7C90"/>
<path d="M936.621 423.445C931.558 456.797 934.6 493.655 929.527 510.329C927.702 516.336 900.933 524.474 866.228 525.334C839.942 525.984 809.188 518.43 783.066 517.818C781.092 517.771 779.138 517.729 777.208 517.692C744.82 517.037 719.809 517.355 719.809 517.355C719.809 517.355 678.273 269.856 691.44 258.446C702.993 248.442 755.334 233.591 769.506 227.533L810.587 298.309L846.466 223.457L893.05 232.558C893.05 232.558 927.497 248.793 928.507 251.425C929.518 254.056 941.688 390.093 936.621 423.445Z" fill="#E2B897"/>
<path d="M892.858 381.983C892.336 381.983 891.91 381.571 891.9 381.062L891.292 338.683C891.215 333.396 888.868 317.335 888.849 317.176C888.772 316.666 889.136 316.189 889.663 316.119C890.181 316.049 890.674 316.4 890.746 316.914C890.842 317.578 893.131 333.251 893.212 338.66L893.821 381.038C893.83 381.553 893.404 381.978 892.877 381.987C892.868 381.983 892.863 381.983 892.858 381.983Z" fill="#B08174"/>
<path d="M790.307 174.058C791.217 178.634 797.621 181.869 805.007 181.35C811.425 180.901 816.521 177.76 817.709 173.908L790.307 174.058Z" fill="white"/>
<path d="M811.176 299.305C810.831 299.305 810.515 299.123 810.342 298.833L790.801 265.167C790.542 264.719 790.7 264.148 791.16 263.891C791.62 263.639 792.204 263.793 792.467 264.242L811.094 296.327L834.219 248.082C834.444 247.615 835.014 247.414 835.493 247.634C835.972 247.853 836.178 248.41 835.952 248.877L812.043 298.768C811.889 299.085 811.569 299.291 811.214 299.305C811.2 299.305 811.185 299.305 811.176 299.305Z" fill="#B08174"/>
<path d="M860.95 526.297C849.689 526.297 836.134 525.447 821.766 522.698C786.016 515.85 761.728 517.991 761.488 518.014C760.957 518.061 760.492 517.687 760.444 517.173C760.396 516.659 760.779 516.201 761.306 516.154C761.55 516.131 786.116 513.966 822.134 520.866C858.765 527.882 890.506 522.338 890.794 522.273C891.311 522.156 891.823 522.474 891.943 522.974C892.063 523.474 891.742 523.979 891.229 524.096C891.052 524.129 878.93 526.297 860.95 526.297Z" fill="#1D1647"/>
<path d="M810.783 579.133C810.256 579.133 809.825 578.712 809.825 578.198V552.947C809.825 552.881 809.83 552.816 809.844 552.75L812.886 538.774C812.996 538.269 813.504 537.941 814.021 538.054C814.538 538.161 814.869 538.657 814.758 539.162L811.741 553.045V578.198C811.741 578.712 811.31 579.133 810.783 579.133Z" fill="#1D1647"/>
<path d="M338.728 188.572C338.728 188.572 350.591 184.29 361.32 189.638C372.743 195.336 378.539 201.029 381.168 248.887C383.793 296.739 383.501 320.668 383.793 324.37C384.085 328.072 290.4 326.931 290.4 326.931V207.868L338.728 188.572Z" fill="#0B0635"/>
<path d="M291.425 324.828C291.425 324.828 243.73 329.9 244.626 410.114C245.526 490.327 228.006 484.732 242.332 541.863C242.332 541.863 274.738 548.263 293.312 535.333L291.43 377.561V324.828H291.425Z" fill="#FCFCFC"/>
<path d="M407.684 600L407.751 599.439H254.77C256.298 590.515 259.79 577.319 264.091 562.777C264.488 561.431 264.895 560.061 265.307 558.692L265.331 558.612C266.845 553.568 268.445 548.398 270.078 543.224L270.155 542.971C277.578 519.417 285.692 495.754 290.132 482.998C290.137 482.989 290.137 482.984 290.137 482.979C291.186 479.978 292.029 477.58 292.603 475.935V475.925C293.193 474.28 293.509 473.383 293.509 473.383H393.056C393.344 474.191 393.851 476.281 394.531 479.375V479.38C394.704 480.151 394.881 480.983 395.073 481.876C397.041 491.117 400.073 506.576 403.273 523.306C403.277 523.31 403.277 523.31 403.273 523.315C403.522 524.615 403.771 525.909 404.024 527.218C405.457 534.721 406.908 542.396 408.306 549.81C408.469 550.68 408.632 551.54 408.79 552.404C409.14 554.265 409.489 556.107 409.83 557.92C409.858 558.079 409.892 558.238 409.916 558.392C410.237 560.099 410.553 561.777 410.859 563.427C411.161 565.021 411.448 566.577 411.741 568.106C414.825 584.635 417.158 597.289 417.555 599.434C417.598 599.649 417.617 599.757 417.617 599.757L407.684 600Z" fill="#FF7C90"/>
<path d="M293.595 326.693C293.595 326.693 271.965 332.826 274.882 377.201C277.799 421.575 253.266 476.599 288.595 482.998L385.929 481.815C395.111 481.703 402.492 474.406 402.492 465.445V325.697L382.088 322.243L293.595 326.693Z" fill="#FCFCFC"/>
<path d="M353.144 310.697L317.926 311.73L319.138 282.211H351.396L353.144 310.697Z" fill="#F8BD8C"/>
<path d="M314.88 306.336H359.835C362.738 306.336 365.243 308.439 365.832 311.375L368.385 324.061L306.532 326.403L308.831 311.66C309.31 308.589 311.872 306.336 314.88 306.336Z" fill="#FCFCFC"/>
<path d="M352.052 292.892C350.055 297.033 346.386 301.147 341.165 301.717C332.195 302.699 323.449 292.99 319.128 287.614C318.266 286.539 317.85 285.642 317.371 285.034C318.113 285.464 319.263 286.207 321.336 286.96C324.795 288.227 330.092 289.54 337.133 289.531C342.234 289.526 346.132 288.339 348.949 286.96L351.674 286.918L352.052 292.892Z" fill="#EAB186"/>
<path d="M367.178 247.54C367.939 271.268 353.451 290.966 334.819 291.536C316.188 292.107 300.459 273.334 299.697 249.606C298.935 225.879 313.424 206.181 332.056 205.61C350.692 205.04 366.416 223.813 367.178 247.54Z" fill="#F8BD8C"/>
<path d="M374.865 250.139C374.865 255.052 370.497 259.797 366.895 259.797C363.294 259.797 360.372 255.814 360.372 250.901C360.372 245.988 365.157 242.006 368.759 242.006C372.365 242.006 374.865 245.226 374.865 250.139Z" fill="#F8BD8C"/>
<path d="M354.754 234.784C354.481 234.784 354.208 234.742 353.935 234.657C346.693 232.339 341.927 234.447 341.726 234.536C340.423 235.13 338.852 234.587 338.234 233.316C337.616 232.044 338.148 230.53 339.446 229.913C339.719 229.782 346.204 226.79 355.568 229.782C356.947 230.221 357.699 231.67 357.244 233.017C356.885 234.101 355.855 234.784 354.754 234.784Z" fill="black"/>
<path d="M304.42 238.846C303.577 238.846 302.753 238.453 302.245 237.724C301.436 236.56 301.728 234.985 302.911 234.181C303.16 234.017 309.104 230.086 318.827 231.661C320.259 231.89 321.226 233.213 320.992 234.606C320.757 236.004 319.392 236.943 317.969 236.714C310.454 235.508 306.067 238.289 305.885 238.406C305.435 238.706 304.927 238.846 304.42 238.846Z" fill="black"/>
<path d="M333.301 259.067H330.676C330.432 259.067 330.24 258.876 330.24 258.642V249.027C330.24 248.793 330.437 248.601 330.676 248.601C330.916 248.601 331.112 248.793 331.112 249.027V258.212H333.301C333.545 258.212 333.737 258.404 333.737 258.637C333.737 258.876 333.54 259.067 333.301 259.067Z" fill="black"/>
<path d="M316.662 246.947C316.662 248.924 315.354 250.527 313.745 250.527C312.131 250.527 310.828 248.924 310.828 246.947C310.828 244.969 312.136 243.366 313.745 243.366C315.359 243.366 316.662 244.969 316.662 246.947Z" fill="black"/>
<path d="M350.591 243.366C350.591 245.343 349.284 246.947 347.675 246.947C346.06 246.947 344.758 245.343 344.758 243.366C344.758 241.389 346.065 239.79 347.675 239.79C349.284 239.79 350.591 241.389 350.591 243.366Z" fill="black"/>
<path d="M322.807 270.959C323.794 275.353 329.091 278.209 334.958 277.391C340.054 276.681 343.943 273.418 344.667 269.632L322.807 270.959Z" fill="#FCFCFC"/>
<path d="M337.827 187.637C346.985 205.564 324.876 212.005 316.504 221.705C307.356 232.311 301.028 253.248 301.522 267.187C302.868 305.223 316.044 335.715 290.343 370.526C295.669 349.388 287.57 333.228 280.816 314.044C273.388 292.943 273.512 271.315 276.079 249.391C278.01 232.877 278.642 206.157 291.368 193.686C298.677 186.524 331.993 176.213 337.827 187.637Z" fill="#0B0635"/>
<path d="M335.71 205.751C335.71 205.751 339.805 212.781 348.982 217.105C361.976 223.224 364.759 243.371 364.759 243.371L370.033 240.566L359.826 203.081L335.71 205.751Z" fill="#0B0635"/>
<path d="M410.926 558.276L404.456 556.209C404.456 556.209 403.651 555.092 404.542 553.662C405.433 552.231 407.554 552.278 408.584 552.381C409.619 552.484 411.76 553.269 411.76 553.269C411.76 553.269 414.293 550.441 416.889 549.16C416.889 549.16 416.214 545.687 417.416 543.425C417.416 543.425 414.758 540.779 415.045 536.876C415.045 536.876 414.772 536.408 414.37 535.684C414.03 535.833 413.374 536.123 412.952 536.362C412.363 536.694 412.311 538.573 412.545 539.699C412.78 540.83 413.039 544.411 412.67 546.458C412.301 548.506 410.701 549.894 408.311 549.819C405.921 549.74 405.845 547.454 405.38 545.425C404.915 543.397 405.117 541.494 405.279 537.843C405.447 534.193 404.475 532.365 403.761 528.915C403.047 525.465 403.306 522.694 403.306 522.694C403.622 519.814 404.796 516.336 405.107 515.439C404.762 513.359 404.791 511.405 405.466 509.946C406.683 507.333 402.731 488.257 402.731 488.257L422.709 490.458L420.85 512.04C420.85 512.04 427.106 524.816 429.175 530.561C431.244 536.301 432.753 539.33 432.46 542.181C432.46 542.181 429.424 553.662 426.306 556.2C423.111 558.799 416.003 563.357 413.925 563.516C411.688 563.684 405.739 562.903 405.739 562.903C405.739 562.903 404.412 562.847 403.426 562.319C403.426 562.319 402.468 562.333 403.205 560.379C403.948 558.425 405.998 558.916 410.926 558.276Z" fill="#F8BD8C"/>
<path d="M391.485 323.697C391.485 323.697 419.442 321.743 429.29 360.013C439.137 398.282 438.103 412.624 437.581 437.001C437.063 461.374 466.189 509.497 439.75 540.513C439.75 540.513 417.368 529.64 396.634 525.503C396.634 525.503 393.008 521.642 395.082 481.423C397.156 441.203 391.485 323.697 391.485 323.697Z" fill="#FCFCFC"/>
<path d="M270.15 542.971C270.15 542.971 261.845 543.471 260.235 543.448C260.235 543.448 260.355 554.751 265.192 558.598L265.307 558.691L270.15 542.971Z" fill="#EAB186"/>
<path d="M283.767 461.986C283.283 461.986 282.866 461.631 282.814 461.149C282.775 460.771 281.851 451.782 283.944 442.395C285.017 437.585 284.284 434.813 283.173 430.611C282.186 426.881 280.96 422.234 280.462 414.377C279.384 397.45 285.826 387.91 286.099 387.512C286.396 387.082 286.99 386.97 287.431 387.26C287.871 387.55 287.986 388.129 287.689 388.56C287.589 388.704 281.343 398.063 282.378 414.264C282.866 421.945 284.068 426.493 285.036 430.148C286.171 434.449 286.99 437.553 285.826 442.793C283.8 451.889 284.72 460.864 284.729 460.953C284.782 461.467 284.404 461.925 283.877 461.981C283.834 461.986 283.8 461.986 283.767 461.986Z" fill="#CCDDE7"/>
<path d="M392.266 476.383C392.232 476.383 392.199 476.383 392.165 476.379C391.639 476.327 391.255 475.865 391.313 475.35C392.098 467.974 392.688 461.332 391.993 454.773C391.629 451.333 391.193 447.878 390.772 444.541C389.833 437.127 388.865 429.461 388.664 421.673C388.65 421.159 389.067 420.729 389.598 420.715C390.125 420.692 390.566 421.108 390.58 421.627C390.781 429.321 391.701 436.604 392.678 444.312C393.099 447.659 393.54 451.118 393.904 454.577C394.618 461.313 394.019 468.058 393.224 475.542C393.166 476.028 392.755 476.383 392.266 476.383Z" fill="#CCDDE7"/>
<path d="M346.377 483.933H288.595C288.068 483.933 287.637 483.512 287.637 482.998C287.637 482.484 288.068 482.063 288.595 482.063H346.377C346.903 482.063 347.335 482.484 347.335 482.998C347.335 483.512 346.903 483.933 346.377 483.933Z" fill="#DC4070"/>
<path d="M1135.71 183.416H1088.18V225.243H1135.71V183.416Z" fill="#F8BD8C"/>
<path d="M1135.7 186.824V199.828C1132.22 203.264 1127.46 205.989 1121.48 206.517C1108.64 207.644 1096.07 198.332 1088.17 191.124V186.81C1088.21 186.819 1088.25 186.833 1088.29 186.842C1094.08 188.525 1102.94 190.283 1114.74 190.269C1123.27 190.259 1129.8 188.684 1134.51 186.842L1135.7 186.824Z" fill="#EAB186"/>
<path d="M1079.5 147.726C1080.09 154.715 1077.3 160.642 1073.25 160.969C1069.21 161.296 1065.45 155.893 1064.86 148.904C1064.27 141.916 1067.07 135.989 1071.11 135.662C1075.16 135.334 1078.92 140.733 1079.5 147.726Z" fill="#F2B588"/>
<path d="M1157.66 149.161C1156.81 156.126 1152.86 161.39 1148.83 160.922C1144.8 160.455 1142.22 154.43 1143.07 147.465C1143.92 140.5 1147.88 135.236 1151.9 135.704C1155.94 136.176 1158.51 142.197 1157.66 149.161Z" fill="#F2B588"/>
<path d="M1111.67 197.986C1132.97 197.986 1150.24 175.516 1150.24 147.797C1150.24 120.077 1132.97 97.6067 1111.67 97.6067C1090.37 97.6067 1073.1 120.077 1073.1 147.797C1073.1 175.516 1090.37 197.986 1111.67 197.986Z" fill="#F8BD8C"/>
<path d="M1102.18 74.0801C1101.03 74.0801 1090.7 66.6851 1077.39 79.007C1064.07 91.3289 1067.13 88.9402 1063.46 92.2264C1059.79 95.5125 1060.71 98.981 1055.81 102.024C1050.91 105.072 1049.99 106.563 1052.13 110.148C1054.27 113.734 1055.77 117.319 1051.04 119.708C1046.32 122.096 1044.48 122.695 1046.93 124.784C1049.38 126.874 1047.31 129.641 1052.82 130.534C1058.33 131.431 1061.31 132.001 1062.23 134.292C1063.15 136.582 1065.22 136.582 1067.97 137.48C1070.73 138.377 1071.18 138.826 1072.1 140.168C1073.02 141.514 1074.01 141.065 1074.01 141.065C1074.01 141.065 1079.58 127.808 1079.86 122.115C1080.14 116.421 1081.98 122.246 1086.34 116.421C1090.7 110.597 1091.59 111.088 1095.29 106.507C1099 101.926 1096.8 104.801 1099.84 101.538C1102.87 98.2798 1102.18 74.0801 1102.18 74.0801Z" fill="#E2B897"/>
<path d="M1111.98 162.811C1111.54 162.811 1111.22 162.797 1111.1 162.792C1110.84 162.783 1110.65 162.573 1110.66 162.325C1110.68 162.077 1110.89 161.876 1111.14 161.899C1112.96 161.984 1116.12 161.792 1116.85 160.941C1117.55 160.123 1117.21 155.411 1116.75 152.331C1116.71 152.088 1116.89 151.859 1117.14 151.821C1117.39 151.784 1117.62 151.957 1117.66 152.2C1117.86 153.504 1118.77 160.09 1117.56 161.516C1116.58 162.657 1113.53 162.811 1111.98 162.811Z" fill="#080305"/>
<path d="M1099.2 172.884H1124.68C1124.68 172.884 1116.57 185.917 1104.05 177.479C1103.62 177.19 1099.2 172.884 1099.2 172.884Z" fill="white"/>
<path d="M1102.55 131.352C1101.06 131.506 1099.49 131.623 1097.97 131.74C1096.44 131.871 1094.92 131.987 1093.42 132.142C1091.91 132.296 1090.43 132.488 1088.96 132.689C1087.5 132.922 1086.07 133.184 1084.64 133.474L1084.55 133.493C1083.55 133.694 1082.56 133.063 1082.35 132.076C1082.19 131.272 1082.59 130.482 1083.29 130.113C1084.82 129.309 1086.45 128.771 1088.08 128.374C1089.71 127.995 1091.36 127.766 1093 127.631C1094.64 127.523 1096.28 127.491 1097.92 127.584C1099.55 127.673 1101.15 127.836 1102.81 128.201C1103.69 128.393 1104.24 129.248 1104.04 130.108C1103.88 130.791 1103.3 131.272 1102.62 131.342L1102.55 131.352Z" fill="#080305"/>
<path d="M1120.8 128.201C1122.46 127.837 1124.05 127.668 1125.69 127.584C1127.32 127.495 1128.96 127.528 1130.61 127.631C1132.25 127.766 1133.9 127.995 1135.53 128.374C1137.16 128.771 1138.79 129.309 1140.31 130.113C1141.22 130.59 1141.55 131.693 1141.07 132.576C1140.67 133.301 1139.84 133.652 1139.06 133.493L1138.96 133.474C1137.54 133.189 1136.1 132.922 1134.64 132.689C1133.17 132.488 1131.69 132.296 1130.19 132.142C1128.68 131.987 1127.17 131.866 1125.64 131.74C1124.12 131.618 1122.55 131.506 1121.05 131.352L1120.98 131.342C1120.09 131.249 1119.44 130.464 1119.53 129.589C1119.61 128.893 1120.14 128.351 1120.8 128.201Z" fill="#080305"/>
<path d="M1095.45 143.725C1095.45 145.973 1094.03 147.796 1092.27 147.796C1090.52 147.796 1089.1 145.973 1089.1 143.725C1089.1 141.477 1090.52 139.654 1092.27 139.654C1094.03 139.654 1095.45 141.477 1095.45 143.725Z" fill="#080305"/>
<path d="M1133.46 143.725C1133.46 145.973 1132.04 147.796 1130.28 147.796C1128.53 147.796 1127.11 145.973 1127.11 143.725C1127.11 141.477 1128.53 139.654 1130.28 139.654C1132.04 139.654 1133.46 141.477 1133.46 143.725Z" fill="#080305"/>
<path d="M1095.65 91.3429C1095.65 91.3429 1096.57 108.942 1113.56 113.28C1113.56 113.28 1118.38 112.799 1122.06 119.549C1125.73 126.299 1121.83 125.574 1126.19 127.743C1130.55 129.912 1130.09 127.5 1136.98 130.393C1143.87 133.287 1141.57 135.274 1146.62 138.139C1151.67 141 1161.55 138.831 1162.92 136.424C1164.3 134.011 1166.59 133.292 1167.28 130.88C1167.97 128.468 1167.28 117.861 1167.28 117.861C1167.28 117.861 1159.02 112.074 1156.26 105.324C1153.51 98.5743 1157.18 95.6808 1151.21 91.3429C1145.25 87.005 1136.06 83.1486 1134.23 81.218C1132.39 79.2874 1130.09 69.6487 1122.29 70.1302C1114.48 70.6116 1104.84 69.8544 1101.4 70.1115C1097.95 70.3686 1096.12 73.2621 1095.66 76.3986C1095.19 79.5305 1095.65 91.3429 1095.65 91.3429Z" fill="#E2B897"/>
<path d="M1211.63 599.439H1123.57C1121.79 576.955 1120.23 553.952 1120 540.251C1119.95 537.493 1120 533.319 1120 533.319L1115.84 599.439H1015.8C1015.88 580.858 1016.89 558.201 1019.62 531.36C1019.71 530.444 1019.81 529.518 1019.91 528.598C1020.84 519.683 1021.96 510.316 1023.3 500.49C1023.78 496.979 1024.28 493.403 1024.82 489.771C1025.39 485.91 1025.99 481.984 1026.63 477.992C1027.09 475.042 1027.59 472.055 1028.09 469.031C1028.33 467.61 1028.57 466.175 1028.82 464.74V464.735C1029.26 462.215 1029.7 459.677 1030.17 457.102C1031.06 452.114 1032.01 447.037 1033 441.863H1195.91C1195.91 441.863 1196.61 444.611 1197.71 449.566C1198.1 451.272 1198.53 453.236 1198.99 455.442C1199 455.456 1199 455.465 1199 455.479C1199.08 455.867 1199.17 456.265 1199.25 456.667C1200.24 461.365 1201.37 467.049 1202.55 473.537C1203.47 478.576 1204.41 484.097 1205.34 490.005C1206.86 499.751 1208.34 510.563 1209.54 522.035C1209.73 523.909 1209.93 525.802 1210.11 527.714C1212.27 550.371 1213.29 575.258 1211.63 599.439Z" fill="#FF7C90"/>
<path d="M1179.52 227.08C1179.52 227.08 1215.17 237.976 1222.45 244.329C1229.72 250.686 1254.46 304.938 1254.46 333.406C1254.46 361.878 1260.28 405.584 1254.46 413.811C1248.65 422.038 1222.45 462.837 1204.98 472.247C1187.52 481.661 1180.36 480.955 1180.36 480.955L1176.09 438.576L1194.8 371.54L1185.31 270.525L1179.52 227.08Z" fill="#755FAA"/>
<path d="M1068.1 218.792C1072.01 217.367 1082.49 214.464 1089.82 217.128C1097.15 219.793 1114.8 222.457 1123.22 218.792C1131.64 215.128 1142.5 214.637 1150.1 216.217C1157.7 217.797 1179.16 222.125 1191.65 232.119C1204.14 242.113 1211.74 430.681 1200.2 446.677C1196.17 452.263 1176.09 471.302 1144.29 465.59C1118.89 461.028 1090.08 480.979 1062.98 467.395C1041.81 456.784 1024.92 456.676 1024.92 456.676C1024.92 456.676 999.398 290.097 1013.52 252.117C1013.52 252.112 1015.15 238.117 1068.1 218.792Z" fill="#755FAA"/>
<path d="M1120 534.253C1119.99 534.253 1119.98 534.253 1119.97 534.253C1119.44 534.235 1119.02 533.805 1119.04 533.286C1119.21 528.471 1121.88 525.035 1125.93 519.833C1128.91 516.004 1132.62 511.236 1136.68 504.201C1136.94 503.753 1137.53 503.594 1137.99 503.846C1138.45 504.098 1138.61 504.669 1138.35 505.117C1134.22 512.265 1130.47 517.084 1127.45 520.959C1123.49 526.05 1121.1 529.121 1120.95 533.342C1120.94 533.856 1120.51 534.253 1120 534.253Z" fill="#1D1647"/>
<path d="M1068.77 221.359C1068.77 221.359 1039.67 238.743 1027.12 245.956C1014.57 253.168 1006.36 263.709 1003.46 269.809C1000.57 275.91 993.809 281.458 994.292 285.343C994.776 289.227 983.19 305.868 980.776 319.737C978.362 333.607 974.018 379.65 974.018 381.314C974.018 382.978 981.744 421.257 981.744 421.257C981.744 421.257 1004.43 447.883 1009.26 453.988C1014.09 460.088 1028.57 470.078 1030.5 470.078C1032.43 470.078 1044.5 460.649 1044.02 451.216C1043.53 441.783 1040.16 414.601 1036.78 410.165C1034.13 406.697 1030.9 403.565 1028.46 398.914C1027.78 397.619 1027.16 396.202 1026.64 394.632C1024.22 387.419 1030.98 370.222 1030.98 370.222C1030.98 370.222 1052.71 309.201 1051.74 300.881C1050.77 292.56 1058.01 263.158 1056.08 255.393C1054.15 247.62 1068.77 221.359 1068.77 221.359Z" fill="#755FAA"/>
<path d="M1079.22 472.719C1062.25 472.719 1054.56 463.716 1054.23 463.323C1053.89 462.921 1053.96 462.332 1054.37 462.009C1054.78 461.682 1055.38 461.743 1055.71 462.145C1055.83 462.285 1063.71 471.4 1080.81 470.826C1095.62 470.325 1103.08 468.572 1109.08 467.165C1110.32 466.876 1111.49 466.6 1112.67 466.347C1123.49 464.029 1138.49 461.276 1143.83 464.174C1144.29 464.426 1144.46 464.992 1144.21 465.445C1143.95 465.894 1143.37 466.058 1142.9 465.81C1137.58 462.926 1119.14 466.876 1113.08 468.175C1111.92 468.428 1110.76 468.699 1109.53 468.984C1103.45 470.41 1095.88 472.186 1080.88 472.695C1080.31 472.709 1079.76 472.719 1079.22 472.719Z" fill="#1D1647"/>
<path d="M1030.98 390.023C1030.54 390.023 1030.14 389.724 1030.04 389.28C1027.86 379.206 1028.97 370.152 1033.35 362.364C1037.38 355.203 1039.98 347.948 1042.73 340.273C1044.34 335.771 1046 331.12 1047.97 326.53C1048.18 326.053 1048.74 325.828 1049.23 326.029C1049.72 326.23 1049.95 326.777 1049.74 327.254C1047.79 331.793 1046.14 336.416 1044.54 340.89C1041.88 348.303 1039.13 355.965 1035.03 363.266C1030.88 370.647 1029.84 379.272 1031.92 388.896C1032.03 389.401 1031.7 389.897 1031.18 390.004C1031.12 390.014 1031.05 390.023 1030.98 390.023Z" fill="#1D1647"/>
<path d="M1108.12 221.676C1100.84 221.676 1088.44 217.703 1087.88 217.521C1087.37 217.357 1087.1 216.829 1087.27 216.338C1087.44 215.847 1087.98 215.581 1088.48 215.745C1088.62 215.791 1102.97 220.386 1109.47 219.741C1113.14 219.377 1115.6 219.465 1117.24 219.522C1118.29 219.559 1119.2 219.592 1119.45 219.433C1119.9 219.152 1120.49 219.279 1120.77 219.713C1121.06 220.148 1120.93 220.728 1120.48 221.003C1119.73 221.48 1118.76 221.447 1117.17 221.387C1115.58 221.331 1113.2 221.246 1109.66 221.597C1109.18 221.658 1108.66 221.676 1108.12 221.676Z" fill="#1D1647"/>
<path d="M1355.37 303.835C1347.18 314.114 1334.31 322.486 1320.65 322.865C1319.35 322.898 1317.13 323.047 1314.16 323.276C1292.44 324.954 1231.03 331.251 1203.91 334.06C1195.81 334.892 1190.77 335.43 1190.74 335.43C1187.49 335.771 1185.03 324.216 1184.92 322.514C1184.51 316.62 1186.66 310.898 1189.58 305.841C1192.56 300.689 1199.06 294.706 1196.66 288.227C1194.55 282.482 1186.41 281.281 1182.88 276.246C1180.34 272.614 1180.75 267.613 1182.75 263.681C1185.7 257.866 1191.21 252.991 1197.18 250.308C1202.32 247.999 1206.74 245.306 1209.05 240.632C1209.57 239.594 1209.97 238.463 1210.27 237.205C1211.87 230.17 1210.41 221.307 1215.32 215.128C1219.42 209.986 1229.37 204.563 1238.73 194.284C1240.21 192.662 1241.72 191.143 1243.25 189.717C1243.59 189.4 1243.94 189.077 1244.29 188.768C1252.19 181.701 1260.61 177.325 1267.69 176.867C1276.47 176.297 1291.1 178.293 1294.32 186.576C1297.54 194.855 1301.63 193.714 1306.9 196.855C1312.17 199.997 1324.16 202.567 1326.89 220.461C1328.44 230.549 1326.88 235.307 1326.83 238.701C1326.81 240.655 1327.28 242.151 1329.13 243.955C1329.76 244.582 1330.56 245.236 1331.57 245.965C1340.55 252.439 1349.91 257.764 1355.38 266.15C1360.83 274.517 1363.57 293.556 1355.37 303.835Z" fill="#231347"/>
<path d="M1355.37 303.835C1347.18 314.114 1334.31 322.486 1320.65 322.865C1319.35 322.898 1317.12 323.047 1314.16 323.276C1314.92 319.051 1315.58 314.049 1315.2 310.688C1314.46 303.835 1314.01 306.874 1312.45 302.307C1310.9 297.74 1315.58 290.508 1315.18 285.175C1314.79 279.85 1308.55 276.424 1305.81 266.902C1303.09 257.39 1309.03 251.42 1309.03 251.42L1326.82 238.706C1326.8 240.66 1327.27 242.156 1329.12 243.96C1329.75 244.586 1330.56 245.241 1331.56 245.97C1340.54 252.444 1349.9 257.768 1355.37 266.154C1360.83 274.517 1363.56 293.556 1355.37 303.835Z" fill="#31185E"/>
<path d="M1289.29 317.671C1285.96 319.097 1282.04 320.42 1277.67 321.28H1257.11C1254.09 320.677 1250.98 319.775 1247.78 318.494L1248.03 307.654L1249.7 281.987L1249.83 279.958L1250.14 275.316L1284.51 276.218L1285.08 280.594L1286.2 289.162L1288.62 307.841L1289.29 317.671Z" fill="#F8BD8C"/>
<path d="M1309.69 249.691C1308.52 254.024 1304.49 256.744 1300.69 255.767C1296.89 254.791 1294.75 250.49 1295.91 246.157C1297.08 241.824 1301.11 239.103 1304.91 240.08C1308.72 241.057 1310.86 245.357 1309.69 249.691Z" fill="#F8BD8C"/>
<path d="M1352.59 328.119L1345.68 485.686L1294.7 487.257L1196.76 490.267L1188.96 325.539L1248.03 307.654C1248.03 307.654 1262.1 317.947 1288.63 307.841C1289.27 307.598 1292.07 308.117 1296.17 309.108C1302.56 310.655 1312.11 313.352 1321.56 316.12C1325.85 319.172 1330.17 322.178 1338.72 323.075C1342.92 323.515 1347.84 325.427 1352.59 328.119Z" fill="white"/>
<path d="M1236.78 260.386C1236.78 260.386 1239.9 275.872 1234.24 285.778C1228.59 295.678 1226.24 296.253 1228.59 305.284C1230.93 314.329 1231.43 312.272 1230.93 317.55C1230.67 320.383 1216.91 328.049 1203.92 334.055C1195.82 334.888 1190.78 335.425 1190.75 335.425C1187.5 335.766 1185.04 324.211 1184.92 322.51C1184.52 316.615 1186.67 310.893 1189.59 305.836C1192.57 300.684 1199.07 294.701 1196.67 288.222C1194.56 282.477 1186.42 281.276 1182.89 276.242C1180.35 272.61 1180.76 267.608 1182.76 263.677C1185.71 257.862 1191.22 252.986 1197.19 250.303C1202.33 247.994 1206.75 245.301 1209.06 240.627C1209.58 239.589 1209.98 238.458 1210.28 237.201C1211.88 230.165 1210.41 221.303 1215.33 215.123C1219.43 209.981 1229.38 204.559 1238.74 194.28C1240.22 192.657 1241.72 191.138 1243.26 189.713C1243.6 189.395 1243.95 189.072 1244.3 188.764L1247.63 225.098L1236.78 260.386Z" fill="#31185E"/>
<path d="M1300.36 242.913C1300.36 267.514 1285.96 287.456 1268.18 287.456C1250.41 287.456 1234.24 268.655 1234.24 244.053C1234.24 219.451 1250.41 198.365 1268.18 198.365C1285.96 198.365 1300.36 218.311 1300.36 242.913Z" fill="#F8BD8C"/>
<path d="M1255.07 231.026C1254.23 230.768 1253.1 230.521 1252.06 230.352C1251 230.18 1249.93 230.044 1248.86 229.978C1246.71 229.829 1244.54 229.894 1242.41 230.165L1242.38 230.17C1241.16 230.324 1240.05 229.488 1239.9 228.3C1239.74 227.141 1240.56 226.075 1241.73 225.884C1244.17 225.486 1246.64 225.323 1249.1 225.407C1250.33 225.44 1251.55 225.547 1252.78 225.706C1254.03 225.874 1255.17 226.061 1256.54 226.426C1257.86 226.776 1258.64 228.104 1258.28 229.389C1257.92 230.675 1256.56 231.437 1255.24 231.086C1255.21 231.077 1255.19 231.072 1255.16 231.063L1255.07 231.026Z" fill="black"/>
<path d="M1275.19 226.655C1276.57 226.323 1277.72 226.169 1278.97 226.029C1280.2 225.902 1281.43 225.823 1282.67 225.818C1285.13 225.795 1287.6 226.014 1290.02 226.473C1291.23 226.702 1292.01 227.838 1291.78 229.011C1291.55 230.161 1290.44 230.918 1289.26 230.745L1289.23 230.74C1287.11 230.418 1284.95 230.301 1282.79 230.399C1281.71 230.441 1280.64 230.549 1279.58 230.694C1278.54 230.838 1277.4 231.058 1276.55 231.297L1276.47 231.32C1275.16 231.689 1273.79 230.946 1273.41 229.665C1273.03 228.384 1273.79 227.048 1275.1 226.678C1275.13 226.669 1275.17 226.66 1275.19 226.655Z" fill="black"/>
<path d="M1253.16 238.121C1253.16 239.982 1251.81 241.487 1250.14 241.487C1248.47 241.487 1247.12 239.977 1247.12 238.121C1247.12 236.261 1248.47 234.756 1250.14 234.756C1251.81 234.756 1253.16 236.261 1253.16 238.121Z" fill="black"/>
<path d="M1284.52 238.692C1284.52 240.552 1283.16 242.057 1281.49 242.057C1279.82 242.057 1278.47 240.547 1278.47 238.692C1278.47 236.831 1279.83 235.326 1281.49 235.326C1283.16 235.326 1284.52 236.831 1284.52 238.692Z" fill="black"/>
<path d="M1242.07 244.053C1244.52 247.84 1243.66 252.668 1240.13 254.842C1236.61 257.016 1231.77 255.711 1229.31 251.925C1226.86 248.139 1227.72 243.31 1231.25 241.136C1234.77 238.963 1239.62 240.267 1242.07 244.053Z" fill="#F8BD8C"/>
<path d="M1329.12 243.95C1323.98 248.335 1317.82 253.533 1317.14 254.529C1315.97 256.244 1305.59 256.455 1307.29 253.814C1307.85 252.944 1310.12 239.968 1302.22 241.108C1294.32 242.249 1293.74 237.682 1291.69 234.541C1289.66 231.4 1291.39 223.121 1291.69 220.162C1291.98 217.217 1287.59 212.842 1282.03 214.838C1276.47 216.839 1265.06 221.691 1261.84 219.69C1258.62 217.689 1261.26 211.412 1251.89 212.837C1242.53 214.263 1242.24 202.273 1242.24 202.273L1243.24 189.708C1251.45 182.079 1260.29 177.339 1267.69 176.858C1276.47 176.288 1291.1 178.284 1294.31 186.567C1297.53 194.845 1301.63 193.705 1306.9 196.846C1312.17 199.987 1324.16 202.558 1326.88 220.452C1329.32 236.331 1324.05 239.014 1329.12 243.95Z" fill="#31185E"/>
<path d="M1352.25 599.439H1198.42C1199.06 576.375 1204.54 549.53 1210.11 527.709C1210.66 525.526 1211.22 523.395 1211.78 521.324C1215.65 506.815 1219.34 495.203 1221.22 489.51C1222.03 487.042 1222.5 485.686 1222.5 485.686L1243.26 484.602L1249.18 484.288L1295.52 481.862L1324.91 480.324C1324.91 480.324 1325.03 482.545 1325.46 486.303C1326.35 494.137 1328.58 508.656 1333.88 523.568C1335.74 528.85 1338 534.188 1340.72 539.293C1348.33 553.648 1351.22 579.138 1352.25 599.439Z" fill="#E2B897"/>
<path d="M1241.68 307.374C1242.19 307.28 1242.64 307.691 1242.6 308.192C1241.85 315.647 1237.16 362.373 1236.09 364.477C1234.92 366.763 1233.75 376.28 1233.36 383.895C1232.97 391.509 1232.97 394.174 1233.36 404.836C1233.75 415.499 1234.92 426.918 1236.09 434.15C1237.26 441.381 1242.13 466.988 1242.43 474.126C1242.72 481.264 1243.01 484.452 1244.48 490.711C1245.94 496.97 1248.28 502.967 1247.7 507.249C1247.11 511.531 1186.55 528.948 1186.55 528.948C1186.55 528.948 1180.4 524.951 1179.53 518.669C1178.65 512.386 1174.56 509.245 1173.67 502.678C1172.8 496.11 1170.55 457.574 1175.24 439.007C1179.92 420.44 1162.36 406.734 1163.14 403.691C1163.92 400.648 1163.73 347.06 1169.29 341.918C1174.85 336.776 1188.81 324.216 1199.71 323.07C1210.62 321.93 1214.63 317.358 1220.49 313.647C1225.45 310.496 1238.02 308.037 1241.68 307.374Z" fill="#C5A2FD"/>
<path d="M1225.17 405.879C1224.87 405.879 1224.56 405.739 1224.38 405.477C1222.71 403.121 1223.38 401.27 1224.09 399.311C1224.88 397.123 1225.78 394.646 1224.26 390.196C1222.89 386.19 1220.76 383.035 1218.69 379.987C1216.31 376.467 1214.06 373.148 1213.49 369.1C1213 365.585 1214.36 360.667 1215.67 355.918C1217.08 350.828 1218.54 345.559 1217.28 343.25C1216 340.904 1213.06 338.646 1210.21 336.463C1207.38 334.285 1204.7 332.228 1203.74 330.106C1203.14 328.783 1203.24 326.268 1210.92 319.728C1214.93 316.316 1219.22 313.348 1219.26 313.32C1219.69 313.02 1220.29 313.123 1220.6 313.544C1220.9 313.965 1220.8 314.549 1220.37 314.848C1212.48 320.294 1204.62 327.422 1205.5 329.353C1206.26 331.05 1208.76 332.966 1211.4 334.995C1214.4 337.3 1217.5 339.679 1218.97 342.371C1220.59 345.335 1219.1 350.711 1217.52 356.404C1216.26 360.976 1214.95 365.706 1215.39 368.848C1215.89 372.475 1217.93 375.476 1220.28 378.958C1222.32 381.964 1224.62 385.372 1226.07 389.607C1227.8 394.669 1226.69 397.712 1225.89 399.938C1225.23 401.751 1224.83 402.845 1225.94 404.416C1226.24 404.841 1226.13 405.421 1225.7 405.715C1225.55 405.823 1225.36 405.879 1225.17 405.879Z" fill="#9E4AFF"/>
<path d="M1169.28 342.498C1167.72 345.723 1148.11 365.37 1146.1 379.678C1144.09 393.987 1137.07 399.353 1137.66 417.238C1138.24 435.122 1135.9 441.087 1144.09 450.029C1152.28 458.971 1152.28 466.722 1158.14 478.053C1163.99 489.379 1157.6 494.745 1169.28 501.902C1180.95 509.058 1185.64 470.901 1194.41 463.744C1203.19 456.592 1197.92 457.62 1194.41 445.78C1190.9 433.94 1176.27 422.609 1175.69 418.434C1175.11 414.26 1179.4 408.945 1180.37 405.654C1181.16 402.999 1188.56 340.964 1189.73 333.177C1190.9 325.389 1183.56 330.316 1183.56 330.316L1169.28 342.498Z" fill="#C5A2FD"/>
<path d="M1185.22 483.059C1185.1 483.059 1184.97 483.036 1184.86 482.989C1184.37 482.793 1184.13 482.25 1184.33 481.769C1188.65 471.438 1189.6 470.274 1191.18 468.353C1191.78 467.624 1192.45 466.801 1193.47 465.259C1195.07 462.819 1196.12 461.692 1196.81 460.944C1197.68 460.009 1197.91 459.761 1198.25 457.901C1198.76 455.162 1196.32 452.923 1195.72 452.422C1195.17 452.207 1194.98 451.361 1193.6 444.135C1192.48 438.24 1187.65 428.031 1181.88 424.988C1179.06 423.506 1175.81 421.356 1175.77 417.883C1175.75 416.004 1176.43 414.284 1177.1 412.619L1177.27 412.199C1180.64 403.668 1182.11 394.459 1183.11 386.578C1183.53 383.306 1183.63 379.973 1183.72 376.748C1183.81 373.546 1183.9 370.231 1184.31 366.945C1184.37 366.431 1184.85 366.066 1185.37 366.127C1185.9 366.188 1186.28 366.655 1186.21 367.165C1185.82 370.367 1185.72 373.634 1185.63 376.799C1185.54 380.066 1185.44 383.446 1185.02 386.802C1184.01 394.796 1182.51 404.145 1179.06 412.867L1178.89 413.293C1178.27 414.858 1177.68 416.336 1177.69 417.855C1177.72 420.342 1180.29 422.02 1182.79 423.338C1189.18 426.694 1194.27 437.371 1195.5 443.789C1196.49 448.996 1196.87 450.557 1196.99 451.015C1197.86 451.74 1200.83 454.545 1200.15 458.228C1199.73 460.523 1199.29 461.07 1198.24 462.197C1197.55 462.94 1196.61 463.954 1195.09 466.264C1194.02 467.89 1193.31 468.755 1192.68 469.517C1191.21 471.307 1190.33 472.392 1186.11 482.47C1185.95 482.839 1185.6 483.059 1185.22 483.059ZM1197.03 451.188H1197.04H1197.03Z" fill="#9E4AFF"/>
<path d="M1249.18 485.228C1248.67 485.228 1248.25 484.84 1248.22 484.344C1248.19 483.83 1248.6 483.386 1249.12 483.358L1304.24 480.441C1304.76 480.413 1305.23 480.806 1305.25 481.325C1305.28 481.839 1304.88 482.283 1304.35 482.311L1249.23 485.228C1249.21 485.223 1249.19 485.228 1249.18 485.228Z" fill="#B08174"/>
<path d="M1363.2 439.007C1367.88 457.569 1365.64 496.11 1364.76 502.678C1363.88 509.241 1359.78 512.387 1358.91 518.664C1358.19 523.769 1354.01 527.364 1352.46 528.537C1352.11 528.803 1351.66 528.878 1351.23 528.757C1344.68 526.859 1291.28 511.265 1290.74 507.245C1290.15 502.963 1292.49 496.966 1293.95 490.706C1294.24 489.449 1294.49 488.318 1294.7 487.252C1295.53 483.008 1295.77 479.824 1296 474.121C1296.29 466.983 1301.16 441.381 1302.34 434.145C1303.51 426.914 1304.67 415.49 1305.07 404.832C1305.46 394.169 1305.46 391.505 1305.07 383.89C1304.67 376.275 1303.51 366.758 1302.34 364.472C1301.29 362.434 1297.05 318.667 1296.16 309.374C1296.15 309.286 1296.15 309.192 1296.16 309.103C1296.24 308.355 1296.96 307.79 1297.76 307.925C1302.1 308.631 1313.27 310.683 1317.94 313.647C1319.19 314.446 1320.37 315.283 1321.54 316.115C1325.84 319.167 1330.15 322.173 1338.71 323.071C1342.91 323.515 1347.82 325.427 1352.58 328.114C1359.7 332.153 1366.46 337.959 1369.81 343.18C1376.1 352.94 1373.71 366.973 1374.21 377.897C1374.57 385.989 1373.26 395.787 1375.28 403.686C1376.07 406.739 1358.52 420.44 1363.2 439.007Z" fill="#C5A2FD"/>
<path d="M1310.06 406.585C1309.88 406.585 1309.68 406.529 1309.52 406.416C1309.08 406.122 1308.98 405.538 1309.27 405.117C1310.38 403.551 1309.99 402.452 1309.33 400.639C1308.53 398.414 1307.42 395.371 1309.15 390.308C1310.59 386.068 1312.9 382.665 1314.93 379.66C1317.29 376.182 1319.32 373.176 1319.83 369.549C1320.27 366.408 1318.96 361.677 1317.69 357.105C1316.12 351.412 1314.63 346.036 1316.25 343.073C1317.72 340.38 1320.82 338.001 1323.81 335.696C1326.46 333.668 1328.95 331.751 1329.72 330.054C1330.63 328.03 1323.56 320.56 1316.48 314.797C1316.07 314.465 1316.02 313.876 1316.35 313.479C1316.69 313.081 1317.3 313.03 1317.7 313.357C1321.42 316.377 1333.39 326.567 1331.47 330.807C1330.51 332.929 1327.83 334.986 1325 337.164C1322.16 339.347 1319.22 341.605 1317.93 343.951C1316.67 346.261 1318.13 351.524 1319.54 356.619C1320.85 361.373 1322.21 366.286 1321.72 369.801C1321.16 373.849 1318.9 377.173 1316.52 380.688C1314.46 383.74 1312.32 386.896 1310.95 390.902C1309.44 395.352 1310.33 397.834 1311.12 400.017C1311.83 401.976 1312.5 403.827 1310.83 406.183C1310.66 406.444 1310.36 406.585 1310.06 406.585Z" fill="#9E4AFF"/>
<path d="M1368.92 342.498C1370.48 345.723 1390.09 365.37 1392.1 379.678C1394.11 393.987 1401.13 399.353 1400.54 417.238C1399.95 435.122 1402.3 441.087 1394.1 450.029C1385.91 458.971 1385.91 466.722 1380.06 478.053C1374.21 489.379 1380.6 494.745 1368.92 501.902C1357.24 509.058 1352.56 470.901 1343.78 463.744C1335 456.592 1340.27 457.62 1343.78 445.78C1347.29 433.935 1361.92 422.609 1362.5 418.434C1363.09 414.26 1358.8 408.945 1357.83 405.654C1357.04 402.999 1349.64 340.964 1348.46 333.177C1347.29 325.389 1354.64 330.316 1354.64 330.316L1368.92 342.498Z" fill="#C5A2FD"/>
<path d="M1338.98 493.824C1338.63 493.824 1338.29 493.637 1338.12 493.315C1338.1 493.282 1336.35 489.977 1332.33 486.378C1331.67 485.789 1331.02 485.246 1330.39 484.728C1326.99 481.932 1324.06 479.52 1325.13 472.766C1325.73 468.933 1326.96 467.217 1328.25 465.399C1329.58 463.534 1330.95 461.603 1332.05 456.905C1334.26 447.435 1348.57 410.745 1349.18 409.188C1349.36 408.707 1349.92 408.464 1350.41 408.646C1350.9 408.828 1351.15 409.371 1350.97 409.852C1350.82 410.231 1336.1 447.977 1333.92 457.321C1332.74 462.374 1331.19 464.548 1329.83 466.465C1328.62 468.171 1327.57 469.643 1327.03 473.051C1326.13 478.768 1328.32 480.572 1331.63 483.302C1332.28 483.835 1332.95 484.386 1333.64 485.003C1337.93 488.851 1339.76 492.324 1339.84 492.473C1340.08 492.936 1339.89 493.497 1339.42 493.731C1339.27 493.791 1339.12 493.824 1338.98 493.824Z" fill="#9E4AFF"/>
<path d="M1270.99 596.139C1270.46 596.139 1270.03 595.718 1270.03 595.204V539.774L1257.64 529.663C1257.23 529.331 1257.18 528.742 1257.52 528.345C1257.86 527.948 1258.46 527.896 1258.87 528.228L1271.6 538.62C1271.82 538.797 1271.95 539.059 1271.95 539.335V595.199C1271.95 595.723 1271.52 596.139 1270.99 596.139Z" fill="#B08174"/>
<path d="M1286.2 289.157C1283.69 292.485 1279.93 295.332 1274.97 295.814C1264.85 296.786 1254.98 287.624 1249.7 281.987L1249.84 279.958C1250.37 280.168 1250.96 280.393 1251.65 280.608C1255.72 281.912 1261.94 283.267 1270.23 283.258C1276.22 283.249 1280.81 282.033 1284.13 280.608L1285.09 280.594L1286.2 289.157Z" fill="#EAB186"/>
<path d="M1266.87 252.107H1264.24C1264 252.107 1263.8 251.916 1263.8 251.682V242.067C1263.8 241.833 1264 241.641 1264.24 241.641C1264.48 241.641 1264.68 241.833 1264.68 242.067V251.252H1266.87C1267.1 251.252 1267.3 251.444 1267.3 251.677C1267.3 251.911 1267.11 252.107 1266.87 252.107Z" fill="black"/>
<path d="M1265.17 268.248C1263.16 268.248 1261.09 267.898 1259.05 267.169C1258.8 267.08 1258.68 266.813 1258.77 266.57C1258.86 266.327 1259.14 266.201 1259.38 266.294C1265.41 268.454 1271.83 267.117 1275 263.055C1275.16 262.849 1275.46 262.807 1275.67 262.966C1275.88 263.125 1275.92 263.415 1275.76 263.621C1273.43 266.617 1269.48 268.248 1265.17 268.248Z" fill="#1A1A1A"/>
<path d="M1234.24 253.566C1234.24 253.945 1233.93 254.248 1233.54 254.248C1233.16 254.248 1232.84 253.94 1232.84 253.566C1232.84 253.187 1233.16 252.883 1233.54 252.883C1233.93 252.883 1234.24 253.192 1234.24 253.566Z" fill="black"/>
<path d="M1302.05 253.8C1302.05 254.178 1301.73 254.482 1301.35 254.482C1300.97 254.482 1300.65 254.174 1300.65 253.8C1300.65 253.421 1300.96 253.117 1301.35 253.117C1301.74 253.117 1302.05 253.426 1302.05 253.8Z" fill="black"/>
<path d="M1230.94 252.107C1231.23 252.107 1231.47 251.877 1231.47 251.593C1231.47 251.309 1231.23 251.079 1230.94 251.079C1230.65 251.079 1230.41 251.309 1230.41 251.593C1230.41 251.877 1230.65 252.107 1230.94 252.107Z" fill="black"/>
<path d="M1021.16 296.856L1004.6 316.082L999.346 322.192L952.604 376.486L955.358 300.783C961.738 300.399 966.714 295.239 966.714 288.998V263.574L999.901 264.752C1000.35 267.664 1000.8 270.586 1001.25 273.502C1001.33 273.998 1001.41 274.493 1001.48 274.984C1001.5 275.059 1001.5 275.124 1001.52 275.199C1001.77 276.873 1001.93 278.85 1002.12 280.925C1002.16 281.346 1002.2 281.772 1002.24 282.202C1003.01 289.681 1004.66 297.842 1013.71 297.291L1021.16 296.856Z" fill="#F8BD8C"/>
<path d="M1002.12 280.93C999.887 284.731 996.237 288.213 991.251 288.741C981.725 289.756 972.438 279.743 967.854 274.204C967.365 273.61 967.011 273.072 966.714 272.605V271.96C967.49 272.395 968.577 272.96 970.201 273.531C973.874 274.835 979.493 276.19 986.969 276.181C992.382 276.172 996.525 274.952 999.513 273.531L1001.25 273.502C1001.32 273.998 1001.4 274.493 1001.48 274.984C1001.49 275.059 1001.5 275.124 1001.51 275.199C1001.77 276.882 1001.92 278.859 1002.12 280.93Z" fill="#EAB186"/>
<path d="M1016.99 257.142C1016.99 257.142 1056.61 252.954 1040.48 204.563C1024.36 156.173 974.775 167.584 974.775 167.584C974.775 167.584 938.091 182.173 933.656 212.842C929.221 243.511 955.822 251.925 955.822 251.925L1016.99 257.142Z" fill="black"/>
<path d="M999.704 170.061C999.704 170.061 1011.08 151.415 1006.7 146.736C1002.31 142.056 996.802 136.625 985.723 138.565C974.645 140.509 972.293 151.223 973.356 154.799C974.42 158.38 977.145 165.504 980.751 171.286C984.358 177.068 999.704 170.061 999.704 170.061Z" fill="black"/>
<path d="M954.869 235.532C952.604 258.75 965.545 278.948 983.779 280.645C1002.01 282.342 1018.63 264.892 1020.9 241.674C1023.16 218.456 1010.22 198.257 991.989 196.561C973.755 194.864 957.135 212.314 954.869 235.532Z" fill="#F8BD8C"/>
<path d="M982.434 190.792C982.434 190.792 996.142 217.741 1022.74 232.297C1049.35 246.853 1025.36 195.317 1025.36 195.317L982.434 190.792Z" fill="black"/>
<path d="M944.782 232.951C944.782 238.252 949.495 243.371 953.38 243.371C957.264 243.371 960.416 239.075 960.416 233.774C960.416 228.473 955.252 224.178 951.368 224.178C947.484 224.178 944.782 227.651 944.782 232.951Z" fill="#F8BD8C"/>
<path d="M1027.59 235.644C1027.59 240.945 1022.88 246.063 1018.99 246.063C1015.11 246.063 1011.96 241.767 1011.96 236.467C1011.96 231.166 1017.12 226.87 1021 226.87C1024.89 226.87 1027.59 230.343 1027.59 235.644Z" fill="#F8BD8C"/>
<path d="M971.24 231.946C971.24 233.999 972.543 235.658 974.148 235.658C975.752 235.658 977.055 233.994 977.055 231.946C977.055 229.899 975.752 228.235 974.148 228.235C972.543 228.235 971.24 229.894 971.24 231.946Z" fill="black"/>
<path d="M1003.61 237.486C1005.22 237.486 1006.52 235.824 1006.52 233.774C1006.52 231.724 1005.22 230.063 1003.61 230.063C1002.01 230.063 1000.71 231.724 1000.71 233.774C1000.71 235.824 1002.01 237.486 1003.61 237.486Z" fill="black"/>
<path d="M979.004 223.355C978.77 223.383 978.525 223.378 978.281 223.345C971.777 222.406 967.792 224.35 967.629 224.435C966.542 224.982 965.129 224.748 964.487 223.911C963.845 223.074 964.185 221.952 965.263 221.396C965.488 221.279 970.9 218.545 979.311 219.755C980.546 219.933 981.322 220.882 981.04 221.878C980.805 222.663 979.967 223.247 979.004 223.355Z" fill="black"/>
<path d="M1012.13 225.323C1011.89 225.276 1011.66 225.201 1011.44 225.098C1005.54 222.266 1001.14 222.934 1000.96 222.962C999.753 223.158 998.484 222.518 998.129 221.527C997.775 220.541 998.455 219.573 999.657 219.363C999.911 219.321 1005.92 218.325 1013.55 221.976C1014.67 222.513 1015.11 223.649 1014.53 224.509C1014.06 225.201 1013.08 225.505 1012.13 225.323Z" fill="black"/>
<path d="M988.857 246.774C988.359 246.774 987.87 246.624 987.468 246.335C986.237 245.456 986.174 244.834 986.318 243.418L986.917 237.448C986.941 237.224 987.147 237.065 987.372 237.084C987.602 237.107 987.769 237.304 987.745 237.528L987.147 243.502C987.017 244.773 987.065 245.049 987.961 245.685C988.306 245.933 988.751 246.021 989.187 245.933L990.739 245.615C990.959 245.568 991.184 245.708 991.232 245.928C991.28 246.148 991.137 246.363 990.911 246.409L989.36 246.727C989.187 246.76 989.02 246.774 988.857 246.774Z" fill="#080305"/>
<path d="M975.829 257.156C976.557 261.737 981.821 265.004 987.908 264.523C993.201 264.107 997.406 260.994 998.402 257.142L975.829 257.156Z" fill="white"/>
<path d="M952.953 240.066C953.437 240.337 953.605 240.945 953.322 241.417C953.044 241.889 952.422 242.053 951.938 241.777C951.454 241.506 951.287 240.898 951.569 240.426C951.852 239.954 952.47 239.79 952.953 240.066Z" fill="#080305"/>
<path d="M1021.46 241.987C1021.95 242.258 1022.12 242.866 1021.83 243.338C1021.56 243.81 1020.93 243.974 1020.45 243.698C1019.97 243.427 1019.8 242.819 1020.08 242.347C1020.36 241.88 1020.98 241.716 1021.46 241.987Z" fill="#080305"/>
<path d="M1045.12 520.595L1017.42 532.286L1001.44 515.878L1036.27 491.347L1051.1 518.304L1045.12 520.595Z" fill="#F8BD8C"/>
<path d="M888.222 585.584L894.477 583.588C894.477 583.588 895.253 582.508 894.391 581.125C893.529 579.741 891.479 579.783 890.482 579.886C889.486 579.989 887.412 580.741 887.412 580.741C887.412 580.741 884.96 578.007 882.455 576.768C882.455 576.768 883.111 573.407 881.947 571.224C881.947 571.224 884.519 568.667 884.237 564.89C884.237 564.89 884.5 564.437 884.888 563.736C885.219 563.88 885.851 564.161 886.258 564.39C886.828 564.708 886.876 566.526 886.651 567.62C886.426 568.714 886.177 572.178 886.531 574.155C886.885 576.132 888.437 577.478 890.746 577.404C893.054 577.329 893.131 575.118 893.581 573.155C894.032 571.196 893.84 569.354 893.677 565.825C893.514 562.296 894.458 560.529 895.148 557.191C895.837 553.858 895.588 551.18 895.588 551.18C895.282 548.399 894.151 545.033 893.845 544.168C894.18 542.158 894.151 540.27 893.495 538.863C892.317 536.334 896.139 517.898 896.139 517.898L876.827 520.029L878.623 540.887C878.623 540.887 872.579 553.237 870.577 558.79C868.575 564.343 867.119 567.269 867.396 570.027C867.396 570.027 870.333 581.125 873.345 583.579C876.434 586.089 883.303 590.497 885.31 590.646C887.475 590.81 893.222 590.058 893.222 590.058C893.222 590.058 894.501 590.001 895.459 589.492C895.459 589.492 896.383 589.506 895.67 587.617C894.961 585.729 892.978 586.201 888.222 585.584Z" fill="#F8BD8C"/>
<path d="M921.739 314.343C921.739 314.343 905.033 323.253 902.615 335.832C900.196 348.411 892.135 366.169 887.7 373.564C883.264 380.964 877.622 396.132 876.818 401.312C876.013 406.491 864.724 480.848 867.947 498.606C871.171 516.364 868.67 530.173 874.892 532.641C881.114 535.109 901 532.641 901 532.641L930.026 359.999L921.739 314.343Z" fill="#ABABAB"/>
<path d="M1042.7 599.439H882.412C882.776 596.419 883.173 593.297 883.604 590.09C884.103 586.397 884.649 582.588 885.247 578.675C885.597 576.375 885.966 574.043 886.354 571.677V571.673C888.092 561.094 890.209 549.871 892.796 538.232V538.227C892.963 537.474 893.131 536.722 893.303 535.964C893.303 535.96 893.303 535.955 893.308 535.95C893.49 535.137 893.672 534.333 893.864 533.515C893.878 533.45 893.893 533.389 893.907 533.323C894.731 529.78 895.593 526.195 896.503 522.586C897.035 520.464 897.585 518.323 898.155 516.182C900.454 507.483 903.026 498.662 905.9 489.785C905.9 489.785 905.9 489.785 905.9 489.781C906.408 488.21 906.925 486.64 907.452 485.064C907.452 485.064 907.926 484.615 909.191 483.942C912.002 482.437 918.722 479.805 932.832 478.473V478.469C932.851 478.469 932.875 478.464 932.894 478.464C939.777 477.814 948.418 477.482 959.213 477.735C971.178 478.015 985.796 479.02 1003.61 481.133C1003.61 481.133 1004.6 484.466 1006.28 489.785C1007.8 494.614 1009.91 501.084 1012.36 508.179C1014.63 514.714 1017.2 521.777 1019.9 528.588C1020.2 529.345 1020.5 530.098 1020.81 530.846C1024.33 539.545 1028.05 547.669 1031.61 553.522C1036.81 562.081 1040.43 580.442 1042.7 599.439Z" fill="#190444"/>
<path d="M907.452 435.108C907.854 431.172 910.062 404.813 910.062 404.813C910.062 404.813 911.48 367.436 910.144 354.455C909.291 346.303 915.125 330.236 919.579 319.41C920.355 317.536 921.078 315.839 921.739 314.343L930.414 310.851L960.133 298.861C960.133 298.861 954.213 342.39 957.441 365.996C957.441 365.996 1004.73 317.746 1014.41 295.715C1014.41 295.715 1046.66 301.474 1054.72 300.437C1062.78 299.385 1081.07 304.101 1088.59 359.185C1096.12 414.265 1120.3 443.111 1121.39 453.086C1122.45 463.047 1127.84 474.065 1114.93 486.653C1102.03 499.242 1080.53 518.646 1077.85 522.329C1075.16 525.994 1048.82 532.29 1048.82 532.29L1021.46 483.816C1020.57 482.241 1021.26 480.264 1022.95 479.553C1027.55 477.618 1035.79 474.126 1038.07 473.009C1041.29 471.433 1061.98 460.953 1061.98 460.953C1061.98 460.953 1045.73 439.441 1043.72 416.621C1042.81 406.421 1042.39 398.367 1042.22 392.542C1041.98 412.105 1039.41 452.988 1023.03 474.06L1014.42 489.799H905.91C905.91 489.799 905.373 486.495 905.91 483.573C906.868 478.305 907.05 439.039 907.452 435.108Z" fill="#ABABAB"/>
<path d="M878.915 533.875C878.834 533.875 878.748 533.866 878.662 533.842L872.828 532.286C871.458 531.921 869.786 530.341 869.001 521.315C868.608 516.804 868.618 512.349 868.623 511.858L866.419 486.354C866.414 486.308 866.414 486.266 866.419 486.219L867.818 464.277C867.871 463.8 872.77 421.113 874.327 411.624C875.955 401.69 878.422 389.906 884.385 377.781C890.3 365.744 900.263 341.451 900.363 341.203C900.56 340.721 901.115 340.492 901.609 340.679C902.102 340.871 902.337 341.413 902.145 341.895C902.044 342.138 892.063 366.492 886.119 378.585C880.266 390.495 877.833 402.116 876.228 411.914C874.681 421.361 869.786 464.006 869.738 464.436L868.349 486.266L870.553 511.741C870.557 511.769 870.557 511.798 870.557 511.83C870.471 521.516 871.755 530.056 873.355 530.486L879.188 532.043C879.701 532.178 879.998 532.692 879.859 533.193C879.72 533.604 879.337 533.875 878.915 533.875Z" fill="#8E8D8E"/>
<path d="M904.286 472.275C904.027 472.275 903.769 472.172 903.582 471.971C903.275 471.644 900.55 468.143 900.157 446.748C899.765 425.334 904.2 409.366 905.388 407.73C905.694 407.309 906.293 407.211 906.724 407.51C907.155 407.809 907.255 408.384 906.954 408.805C906.144 410.076 901.68 425.39 902.073 446.71C902.447 466.951 904.87 470.527 905.024 470.732C905.349 471.116 905.316 471.681 904.937 472.022C904.751 472.195 904.516 472.275 904.286 472.275Z" fill="#8E8D8E"/>
<path d="M957.436 366.926C957.331 366.926 957.221 366.908 957.12 366.875C956.775 366.758 956.526 366.454 956.488 366.099C956.454 365.805 953.188 336.43 958.993 299.165C959.074 298.656 959.558 298.301 960.085 298.38C960.607 298.46 960.966 298.936 960.89 299.446C955.98 330.966 957.599 356.764 958.207 363.916C966.149 356.058 1004.51 317.41 1013.52 295.365C1013.72 294.884 1014.27 294.65 1014.77 294.841C1015.26 295.033 1015.5 295.575 1015.3 296.057C1005.14 320.916 960.037 364.8 958.121 366.655C957.93 366.833 957.685 366.926 957.436 366.926Z" fill="#8E8D8E"/>
<path d="M1077.84 523.259C1077.63 523.259 1077.41 523.189 1077.22 523.04C1076.82 522.708 1076.77 522.119 1077.11 521.721C1077.21 521.614 1086.66 510.69 1104.5 495.311L1105.12 494.773C1111.29 489.463 1118.96 482.858 1121.36 475.033C1124.34 465.305 1122.2 453.801 1115 440.83C1109.04 430.088 1104.38 418.509 1099.88 407.304C1099.39 406.103 1098.91 404.902 1098.42 403.7C1098.23 403.219 1098.47 402.677 1098.97 402.49C1099.46 402.303 1100.01 402.536 1100.21 403.018C1100.69 404.219 1101.17 405.42 1101.66 406.626C1106.14 417.775 1110.78 429.302 1116.68 439.941C1124.13 453.362 1126.32 465.352 1123.19 475.57C1120.64 483.905 1112.74 490.711 1106.39 496.175L1105.77 496.708C1088.04 511.989 1078.67 522.815 1078.58 522.923C1078.38 523.142 1078.12 523.259 1077.84 523.259Z" fill="#8E8D8E"/>
<path d="M1037.87 437.852C1037.81 437.852 1037.75 437.847 1037.69 437.833C1037.17 437.735 1036.83 437.249 1036.93 436.74C1036.93 436.712 1037.49 433.827 1038.68 426.666C1039.86 419.538 1041.24 392.762 1041.25 392.491C1041.28 391.977 1041.74 391.575 1042.26 391.603C1042.79 391.626 1043.19 392.066 1043.17 392.585C1043.11 393.688 1041.77 419.734 1040.57 426.965C1039.38 434.159 1038.82 437.062 1038.82 437.09C1038.72 437.539 1038.32 437.852 1037.87 437.852Z" fill="#8E8D8E"/>
<path d="M979.938 309.384C978.525 309.384 977.165 309.211 975.862 308.86C966.92 306.462 963.936 296.421 963.907 296.319L964.367 296.192C964.396 296.29 967.308 306.084 975.991 308.407C983.966 310.538 994.139 305.925 1006.23 294.678L1006.56 295.014C996.295 304.569 987.362 309.384 979.938 309.384Z" fill="#080305"/>
<path d="M719.512 529.574C719.512 529.574 729.556 532.491 731.543 532.912C731.543 532.912 728.104 546.748 721.044 550.128L720.877 550.208L719.512 529.574Z" fill="#EAB186"/>
<path d="M710.838 308.407C710.838 308.407 713.458 306.448 716.815 309.332C734.709 324.688 732.99 351.412 732.741 358.269C732.492 365.127 738.919 390.14 742.301 399.526C745.682 408.912 749.778 414.466 752.278 430.803C754.778 447.14 752.273 479.436 752.555 483.419C752.843 487.401 756.114 506.73 757.829 512.031C759.108 515.995 757.628 528.032 753.173 529.967C748.714 531.902 745.821 534.422 729.412 532.44C713.008 530.458 717.208 525.148 716.94 517.753C716.672 510.362 714.286 503.762 714.215 500.467C714.143 497.176 713.491 490.959 713.52 482.694C713.549 474.43 714.138 477.641 712.481 469.638C710.824 461.636 698.926 421.164 703.237 411.198C707.547 401.232 691.406 367.819 691.665 365.3C691.928 362.78 687.771 339.885 687.771 339.885C687.771 339.885 691.306 329.11 696.938 321.416C702.571 313.722 710.024 309.463 710.838 308.407Z" fill="#1A1A1A"/>
<path d="M649.368 448.65V479.109L648.697 509.881L648.592 514.583C648.597 514.588 648.592 514.593 648.592 514.597L646.738 599.439H571.632L578.96 513.13L579.775 503.556L579.995 500.929L580.397 496.232C580.397 496.232 580.397 496.232 580.397 496.227L581.959 477.828L583.458 460.131L584.435 448.65H649.368Z" fill="#ABABAB"/>
<path d="M725.762 599.439H650.656L648.764 513.06C648.764 513.055 648.769 513.05 648.764 513.046L648.702 509.881L648.027 479.109V448.65H712.96L716.772 493.516V493.52L717.304 499.812L717.366 500.509V500.532L717.711 504.585V504.589L719.842 529.673L719.871 529.986L721.557 549.871L725.762 599.439Z" fill="#ABABAB"/>
<path d="M575.272 274.33C575.272 274.33 571.029 248.377 581.403 235.041C591.782 221.705 588.477 210.276 588.477 204.087C588.477 197.898 590.364 178.372 599.326 171.23C608.287 164.087 612.061 148.372 641.307 154.084C641.307 154.084 648.855 149.797 668.191 152.177C687.531 154.556 695.549 179.321 696.493 184.561C697.436 189.801 699.324 200.754 704.041 205.989C708.759 211.229 713.477 223.135 710.172 235.036C706.872 246.942 706.719 249.322 711.274 260.278C715.829 271.231 713.472 274.325 713.472 274.325C713.472 274.325 658.291 296.473 575.272 274.33Z" fill="#D1D1D3"/>
<path d="M670.313 294.327H624.27L628.959 262.971L629.275 260.872L629.932 256.469H664.652L665.394 261.414L666.749 270.473L670.313 294.327Z" fill="#F8BD8C"/>
<path d="M666.749 270.473C664.134 273.811 660.269 276.639 655.216 277.116C644.727 278.116 634.496 268.8 628.959 262.971L629.275 260.872C629.75 261.054 630.281 261.241 630.88 261.428C635.128 262.775 641.623 264.168 650.264 264.163C656.524 264.154 661.308 262.891 664.766 261.428L665.394 261.419L666.749 270.473Z" fill="#EAB186"/>
<path d="M645.728 267.898C667.419 267.898 685.003 244.682 685.003 216.044C685.003 187.406 667.419 164.19 645.728 164.19C624.037 164.19 606.453 187.406 606.453 216.044C606.453 244.682 624.037 267.898 645.728 267.898Z" fill="#F8BD8C"/>
<path d="M618.484 225.117C620.515 230.493 618.757 236.163 614.557 237.775C610.356 239.393 605.308 236.345 603.277 230.969C601.247 225.594 603.004 219.924 607.205 218.311C611.405 216.689 616.458 219.741 618.484 225.117Z" fill="#F8BD8C"/>
<path d="M678.254 225.117C676.228 230.493 677.986 236.163 682.186 237.776C686.387 239.388 691.435 236.341 693.461 230.96C695.487 225.58 693.729 219.914 689.529 218.302C685.328 216.694 680.28 219.741 678.254 225.117Z" fill="#F8BD8C"/>
<path d="M618.623 205.91C617.795 205.91 617.014 205.419 616.669 204.606C616.209 203.516 616.717 202.254 617.795 201.792C627.997 197.426 635.746 201.497 636.072 201.67C637.106 202.226 637.499 203.53 636.948 204.573C636.398 205.615 635.123 206.013 634.084 205.461C633.787 205.307 627.69 202.217 619.457 205.746C619.179 205.854 618.896 205.91 618.623 205.91Z" fill="#1A1A1A"/>
<path d="M656.313 205.91C655.484 205.91 654.703 205.419 654.359 204.606C653.899 203.516 654.406 202.254 655.484 201.792C665.686 197.426 673.436 201.497 673.761 201.67C674.796 202.226 675.189 203.53 674.638 204.573C674.087 205.615 672.818 206.013 671.774 205.461C671.477 205.307 665.38 202.217 657.146 205.746C656.873 205.854 656.591 205.91 656.313 205.91Z" fill="#1A1A1A"/>
<path d="M629.932 217.054C629.932 219.498 628.38 221.476 626.469 221.476C624.558 221.476 623.006 219.494 623.006 217.054C623.006 214.609 624.558 212.632 626.469 212.632C628.38 212.627 629.932 214.609 629.932 217.054Z" fill="#1A1A1A"/>
<path d="M668.119 217.054C668.119 219.498 666.567 221.476 664.656 221.476C662.745 221.476 661.193 219.494 661.193 217.054C661.193 214.609 662.745 212.632 664.656 212.632C666.567 212.627 668.119 214.609 668.119 217.054Z" fill="#1A1A1A"/>
<path d="M641.312 168.846C641.312 168.846 618.197 201.062 614.897 217.815C611.597 234.569 592.726 229.329 590.839 229.805C588.951 230.282 602.161 176.47 602.161 176.47L641.312 159.801V168.846Z" fill="#D1D1D3"/>
<path d="M641.312 157.716V159.801V168.85C646.48 179.415 652.984 189.339 660.758 198.136C669 207.457 679.289 215.586 689.356 222.798C691.066 224.023 693.576 225.36 695.152 226.725C693.739 218.582 691.152 210.458 689.572 202.338C688.154 195.041 687.239 187.287 684.94 180.041C684.231 178.966 641.312 157.716 641.312 157.716Z" fill="#D1D1D3"/>
<path d="M621.602 272.469C621.602 272.469 619.466 276.569 619.466 280.449C619.466 284.329 622.886 294.683 613.91 295.113C604.939 295.543 575.493 314.521 567.786 320.126C560.084 325.735 562.221 337.809 562.221 337.809C562.221 337.809 578.026 494.049 580.589 496.634C583.151 499.223 619.998 462.024 633.773 463.641C647.548 465.259 643.17 468.278 648.726 467.848C654.282 467.418 656.413 463.104 658.123 463.319C659.833 463.534 665.6 464.613 668.378 466.553C671.156 468.493 681.837 465.474 689.098 471.943C696.359 478.412 725.408 499.976 725.408 499.976C725.408 499.976 729.254 469.353 722.846 459.864C716.437 450.375 725.408 366.702 722.846 363.682C720.283 360.663 718.147 310.202 718.147 310.202C718.147 310.202 691.129 296.076 682.474 295.753C673.824 295.43 676.065 275.05 676.065 275.05L621.602 272.469Z" fill="#1A1A1A"/>
<path d="M645.718 251.818C643.716 251.818 641.642 251.467 639.607 250.738C639.358 250.649 639.233 250.383 639.324 250.14C639.415 249.896 639.693 249.775 639.937 249.864C645.962 252.019 652.385 250.686 655.556 246.624C655.714 246.419 656.016 246.381 656.227 246.536C656.437 246.69 656.476 246.984 656.318 247.19C653.976 250.186 650.029 251.818 645.718 251.818Z" fill="#1A1A1A"/>
<path d="M682.905 251.402C682.809 251.402 682.708 251.402 682.613 251.397C680.165 251.303 678.067 250.079 676.856 248.041C676.755 247.872 676.812 247.657 676.985 247.564C677.157 247.466 677.378 247.522 677.478 247.69C678.565 249.518 680.448 250.612 682.641 250.696C684.94 250.794 687.148 249.719 688.427 247.914C690.367 245.175 690.664 241.122 689.136 238.28C688.082 236.317 686.305 235.237 684.136 235.237C683.939 235.237 683.777 235.078 683.777 234.887C683.777 234.695 683.939 234.536 684.136 234.536C686.588 234.536 688.59 235.751 689.773 237.958C691.416 241.02 691.1 245.381 689.016 248.316C687.651 250.238 685.333 251.402 682.905 251.402Z" fill="#1A1A1A"/>
<path d="M608.436 251.402C606.007 251.402 603.684 250.233 602.324 248.312C600.504 245.746 600.36 242.174 601.951 239.211C603.364 236.579 605.888 235.008 608.704 235.008C608.9 235.008 609.063 235.167 609.063 235.359C609.063 235.551 608.9 235.709 608.704 235.709C606.122 235.709 603.89 237.107 602.588 239.538C601.117 242.272 601.247 245.559 602.918 247.915C604.197 249.719 606.414 250.789 608.704 250.696C610.902 250.612 612.785 249.513 613.872 247.69C613.973 247.522 614.193 247.466 614.365 247.564C614.538 247.662 614.595 247.877 614.495 248.041C613.283 250.079 611.185 251.304 608.737 251.397C608.632 251.402 608.532 251.402 608.436 251.402Z" fill="#1A1A1A"/>
<path d="M645.977 232.568H645.402C643.496 232.568 641.953 231.007 641.953 229.086V218.928C641.953 218.61 642.212 218.348 642.528 218.348C642.844 218.348 643.103 218.61 643.103 218.928V228.506C643.103 230.109 644.391 231.409 645.977 231.409C646.293 231.409 646.552 231.671 646.552 231.988C646.552 232.311 646.293 232.568 645.977 232.568Z" fill="#1A1A1A"/>
<path d="M627.901 488.205L607.229 475.949L608.68 471.826C609.71 470.391 610.869 468.718 609.533 467.484C608.153 466.212 605.94 465.927 604.187 466.796L581.082 478.263L564.745 491.309C575.359 501.523 583.199 502.308 587.979 501.112C588.477 501.327 588.975 501.546 589.488 501.743L607.214 508.413C608.819 509.241 610.898 508.848 611.956 507.516C612.722 506.553 613.192 504.917 609.882 502.958L613.192 504.917C614.892 505.795 617.091 505.351 618.168 503.921C619.169 502.659 618.475 500.761 616.573 499.359L619.141 500.583C620.994 501.542 623.442 500.976 624.452 499.265C625.329 497.779 624.639 495.96 623.044 495.016L619.394 492.861L623.638 493.319C625.678 494.217 628.476 494.549 629.477 492.693C630.339 491.104 629.582 489.206 627.901 488.205Z" fill="#F8BD8C"/>
<path d="M567.786 320.126C567.786 320.126 522.687 361.808 518.482 368.095C514.521 374.018 511.877 375.453 509.118 377.556C506.359 379.66 507.212 381.371 497.819 396.544C490.812 407.861 486.621 426.629 491.44 439.6C496.426 453.016 509.702 462.178 522.007 468.718C535.346 475.804 537.894 478.099 548.537 484.419C559.184 490.744 561.972 491.945 567.786 498.008C571.259 501.631 579.511 503.356 584.488 504.931C586.677 505.623 589.359 503.229 590.005 501.009L599.656 469.04C599.656 469.04 591.318 448.935 574.631 440.774C565.114 436.118 553.997 431.252 548.561 426.568C544.145 422.768 560.123 414.681 563.437 411.895C566.167 409.6 576.719 400.335 578.601 399.704C580.484 399.073 586.116 372.676 586.116 372.283C586.116 371.891 567.786 320.126 567.786 320.126Z" fill="#1A1A1A"/>
<path d="M646.226 569.686C646.216 569.686 646.207 569.686 646.197 569.686C645.67 569.672 645.249 569.242 645.268 568.728C645.325 566.629 646.71 517.267 648.051 511.522C649.574 504.987 661.701 492.67 662.214 492.151C662.582 491.777 663.186 491.767 663.569 492.127C663.947 492.487 663.962 493.076 663.593 493.45C663.468 493.576 651.322 505.912 649.919 511.938C648.621 517.505 647.198 568.265 647.184 568.779C647.169 569.284 646.743 569.686 646.226 569.686Z" fill="#999999"/>
<path d="M570.344 407.426C570.061 407.426 569.783 407.304 569.592 407.071C569.261 406.664 569.333 406.08 569.75 405.757C575.387 401.4 580.407 396.095 584.67 389.985C585.402 388.934 586.107 387.695 586.849 386.381C588.592 383.301 590.398 380.118 593.051 378.514C593.502 378.243 594.091 378.379 594.369 378.818C594.646 379.258 594.508 379.833 594.057 380.104C591.83 381.445 590.149 384.413 588.525 387.284C587.759 388.635 587.036 389.911 586.255 391.033C581.887 397.296 576.733 402.742 570.943 407.22C570.761 407.356 570.55 407.426 570.344 407.426Z" fill="#333333"/>
<path d="M599.474 457.948C599.12 457.948 598.775 457.751 598.612 457.419C598.583 457.363 595.681 451.66 589.325 449.005C582.447 446.131 580.46 444.233 580.378 444.153C580.005 443.789 580.005 443.195 580.378 442.83C580.752 442.466 581.36 442.466 581.734 442.83C581.748 442.844 583.64 444.593 590.077 447.285C597.113 450.225 600.207 456.344 600.336 456.606C600.566 457.069 600.365 457.63 599.891 457.854C599.757 457.92 599.618 457.948 599.474 457.948Z" fill="#333333"/>
<path d="M718.132 479.142C718.056 479.142 717.979 479.132 717.902 479.114C717.39 478.992 717.074 478.487 717.198 477.982C717.208 477.936 718.367 473.055 716.796 464.155L716.461 462.262C715.608 457.48 715.575 457.293 716.13 454.783C716.351 453.787 716.652 452.427 717.021 450.109C718.343 441.835 710.665 412.816 710.589 412.521C710.455 412.021 710.761 411.511 711.274 411.381C711.786 411.25 712.308 411.549 712.442 412.049C712.763 413.255 720.297 441.737 718.913 450.394C718.535 452.764 718.228 454.157 718.003 455.171C717.524 457.326 717.524 457.326 718.348 461.935L718.683 463.833C720.326 473.163 719.109 478.211 719.057 478.422C718.956 478.856 718.563 479.142 718.132 479.142Z" fill="#333333"/>
</svg>
