<svg width="116" height="116" viewBox="0 0 116 116" fill="none" xmlns="http://www.w3.org/2000/svg">
<g filter="url(#filter0_d)">
<rect x="2" y="1" width="112" height="112" rx="8" fill="white"/>
<path d="M34.1352 73.4004C30.9954 73.4004 28.2044 72.7831 25.7623 71.5485C23.3203 70.314 21.416 68.5719 20.0496 66.3222C18.6832 64.0451 18 61.4114 18 58.421C18 55.4306 18.6832 52.7968 20.0496 50.5197C21.416 48.2426 23.3203 46.4868 25.7623 45.2522C28.2044 44.0177 30.9954 43.4004 34.1352 43.4004C38.3216 43.4004 41.8248 44.4018 44.6449 46.4045V50.4374C42.1156 48.3249 38.7432 47.2687 34.5277 47.2687C32.1728 47.2687 30.0796 47.7214 28.248 48.6267C26.4455 49.5321 25.0355 50.8352 24.018 52.5362C23.0005 54.2097 22.4917 56.1713 22.4917 58.421C22.4917 60.6706 23.0005 62.6459 24.018 64.3469C25.0646 66.0479 26.4891 67.351 28.2916 68.2564C30.1232 69.1617 32.2019 69.6144 34.5277 69.6144C36.679 69.6144 38.5978 69.3538 40.284 68.8325C41.9993 68.2838 43.5837 67.4196 45.0373 66.2399V70.314C42.4208 72.3716 38.7868 73.4004 34.1352 73.4004Z" fill="#7718BC"/>
<path d="M45.4717 44.0177H57.2024C60.4876 44.0177 63.0751 44.7996 64.9648 46.3634C66.8836 47.8997 67.8429 50.0945 67.8429 52.9477C67.8429 55.8558 66.8981 58.0643 65.0084 59.5732C63.1187 61.0547 60.5167 61.7955 57.2024 61.7955H49.9198V72.7831H45.4717V44.0177ZM56.7227 58.2975C58.7578 58.2975 60.3713 57.8997 61.5633 57.1041C62.7553 56.3085 63.3513 54.923 63.3513 52.9477C63.3513 50.9724 62.7553 49.5869 61.5633 48.7913C60.3713 47.9683 58.7578 47.5568 56.7227 47.5568H49.9198V58.2975H56.7227Z" fill="#7718BC"/>
<path d="M67.3868 44.0177H71.8348L82.6934 66.4457L93.5519 44.0177H98V72.7831H93.6828V52.3304L83.7836 72.7831H81.6032L71.6604 52.3304V72.7831H67.3868V44.0177Z" fill="#7718BC"/>
</g>
<defs>
<filter id="filter0_d" x="0" y="0" width="116" height="116" filterUnits="userSpaceOnUse" color-interpolation-filters="sRGB">
<feFlood flood-opacity="0" result="BackgroundImageFix"/>
<feColorMatrix in="SourceAlpha" type="matrix" values="0 0 0 0 0 0 0 0 0 0 0 0 0 0 0 0 0 0 127 0" result="hardAlpha"/>
<feOffset dy="1"/>
<feGaussianBlur stdDeviation="1"/>
<feColorMatrix type="matrix" values="0 0 0 0 0.568627 0 0 0 0 0.619608 0 0 0 0 0.670588 0 0 0 0.24 0"/>
<feBlend mode="normal" in2="BackgroundImageFix" result="effect1_dropShadow"/>
<feBlend mode="normal" in="SourceGraphic" in2="effect1_dropShadow" result="shape"/>
</filter>
</defs>
</svg>
