<svg id="Layer_1" data-name="Layer 1" xmlns="http://www.w3.org/2000/svg" xmlns:xlink="http://www.w3.org/1999/xlink" viewBox="0 0 250 100"><defs><style>.cls-1{fill:#fff;}.cls-2{stroke:#fff;stroke-miterlimit:10;stroke-width:1.5px;fill:url(#linear-gradient);}</style><linearGradient id="linear-gradient" x1="65" y1="50" x2="242" y2="50" gradientUnits="userSpaceOnUse"><stop offset="0" stop-color="#fff"/><stop offset="1"/></linearGradient></defs><path class="cls-1" d="M10.78,47.88l-1.2-2a8.83,8.83,0,0,1,2.9-2.43,8.37,8.37,0,0,1,3.87-.83A6.56,6.56,0,0,1,20.76,44a4.53,4.53,0,0,1,1.54,3.66v8.23H19.85v-8A3.11,3.11,0,0,0,19,45.39a3.86,3.86,0,0,0-2.63-.78A6.22,6.22,0,0,0,14,45a4.91,4.91,0,0,0-1.82,1.26l1,1.61v8H10.78Z"/><path class="cls-1" d="M24.94,55.15v-2a7.17,7.17,0,0,0,4.2,1.13,5.13,5.13,0,0,0,3.66-1.23,4.72,4.72,0,0,0,1.31-3.62,4.72,4.72,0,0,0-1.31-3.62,5.13,5.13,0,0,0-3.66-1.23A7.15,7.15,0,0,0,25,45.74v-2a8.5,8.5,0,0,1,4.63-1.08,7.06,7.06,0,0,1,5.11,1.79,6.58,6.58,0,0,1,1.87,5,6.54,6.54,0,0,1-1.87,5,7.1,7.1,0,0,1-5.11,1.78A8.53,8.53,0,0,1,24.94,55.15Z"/><path class="cls-1" d="M42.15,55.56A5,5,0,0,1,40,53.67a5.16,5.16,0,0,1-.76-2.77V43h2.45v7.82a3.37,3.37,0,0,0,1,2.53,3.8,3.8,0,0,0,2.77.93,3.77,3.77,0,0,0,2.75-.93,3.37,3.37,0,0,0,1-2.53V43h2.45V50.9a5.16,5.16,0,0,1-.76,2.77,5,5,0,0,1-2.15,1.89,8.22,8.22,0,0,1-6.5,0Z"/><path class="cls-1" d="M54.52,55.54a1.06,1.06,0,0,1-.32-.8,1.13,1.13,0,0,1,.32-.82,1.08,1.08,0,0,1,.8-.33,1.12,1.12,0,0,1,.82.33,1.15,1.15,0,0,1,.34.82,1.07,1.07,0,0,1-.34.8,1.12,1.12,0,0,1-.82.33A1.08,1.08,0,0,1,54.52,55.54Z"/><path class="cls-1" d="M65.69,33.58l-.8-1.29a5.83,5.83,0,0,1,1.94-1.63,5.71,5.71,0,0,1,2.58-.55,4.41,4.41,0,0,1,2.94.87,3.06,3.06,0,0,1,1,2.44v5.49H71.74V33.55a2.05,2.05,0,0,0-.58-1.62,2.56,2.56,0,0,0-1.75-.52,4.4,4.4,0,0,0-1.56.26,3.48,3.48,0,0,0-1.21.84l.69,1.07v5.33H65.69Z"/><path class="cls-1" d="M76.7,38.92a5,5,0,0,1-1.57-.65V34h3.56v1.31H76.77v2.13a3.6,3.6,0,0,0,1.85.41A3,3,0,0,0,81,37a3.41,3.41,0,0,0,.81-2.46A3.09,3.09,0,0,0,81,32.18a3.86,3.86,0,0,0-2.7-.77,7.67,7.67,0,0,0-1.66.17,4,4,0,0,0-1.38.53V30.82a5.06,5.06,0,0,1,1.48-.53,8.71,8.71,0,0,1,1.82-.18,5.19,5.19,0,0,1,3.66,1.17,4.22,4.22,0,0,1,1.27,3.28,4.48,4.48,0,0,1-1.26,3.36,4.87,4.87,0,0,1-3.56,1.23A8.14,8.14,0,0,1,76.7,38.92Z"/><path class="cls-1" d="M84.88,31.42h1.63l2,6.21a3.12,3.12,0,0,0,2.32-.83,3.19,3.19,0,0,0,.82-2.35,3.86,3.86,0,0,0-.56-2.27,2.05,2.05,0,0,0-1.79-.77,4.58,4.58,0,0,0-1.12.14V30.29a5.08,5.08,0,0,1,1.39-.18,3.44,3.44,0,0,1,2.78,1.15,4.84,4.84,0,0,1,1,3.19,4.6,4.6,0,0,1-.6,2.4,4,4,0,0,1-1.62,1.53,4.81,4.81,0,0,1-2.27.53H87.31Z"/><path class="cls-1" d="M94.78,38.43V37.12a4.8,4.8,0,0,0,2.8.75,3.44,3.44,0,0,0,2.44-.81,3.17,3.17,0,0,0,.87-2.42,3.17,3.17,0,0,0-.87-2.42,3.44,3.44,0,0,0-2.44-.81,4.79,4.79,0,0,0-2.77.75V30.83a5.7,5.7,0,0,1,3.09-.72,4.75,4.75,0,0,1,3.41,1.19,4.42,4.42,0,0,1,1.25,3.34A4.38,4.38,0,0,1,101.31,38a4.75,4.75,0,0,1-3.41,1.18A5.72,5.72,0,0,1,94.78,38.43Z"/><path class="cls-1" d="M107.32,33.38a2.21,2.21,0,0,0-.41-1.5,1.92,1.92,0,0,0-1.47-.47,4.18,4.18,0,0,0-1.92.45V30.58a4.17,4.17,0,0,1,1-.33,5.71,5.71,0,0,1,1.22-.14,3.14,3.14,0,0,1,2.42.87,3.62,3.62,0,0,1,.8,2.51v5.42h-1.64Z"/><path class="cls-1" d="M110.72,31.42h1.63l2,6.21a3.12,3.12,0,0,0,2.32-.83,3.19,3.19,0,0,0,.82-2.35,3.86,3.86,0,0,0-.56-2.27,2.05,2.05,0,0,0-1.79-.77,4.73,4.73,0,0,0-1.13.14V30.29a5.21,5.21,0,0,1,1.4-.18,3.44,3.44,0,0,1,2.78,1.15,4.84,4.84,0,0,1,1,3.19,4.6,4.6,0,0,1-.6,2.4A4,4,0,0,1,117,38.38a4.81,4.81,0,0,1-2.27.53h-1.54Z"/><path class="cls-1" d="M121.35,38.47a1.75,1.75,0,0,1-.41-1.24V30.35h1.63v6.43a.8.8,0,0,0,.18.6.84.84,0,0,0,.61.17h.57v1.36h-1.39A1.52,1.52,0,0,1,121.35,38.47Zm4.12,0a1.71,1.71,0,0,1-.42-1.23V30.35h1.63v6.43a.8.8,0,0,0,.19.6.86.86,0,0,0,.61.17h.58v1.36h-1.41A1.53,1.53,0,0,1,125.47,38.46Z"/><path class="cls-1" d="M129.82,32.1a1.75,1.75,0,0,1,.45-1.3,1.72,1.72,0,0,1,1.28-.45h1.26v1.38h-.57a.87.87,0,0,0-.62.18.89.89,0,0,0-.18.63v4L133.58,33h.7l2.15,3.49V30.35H138v8.56h-1.47l-2.64-4.3-2.64,4.3h-1.47Z"/><path class="cls-1" d="M141,38.27a3.08,3.08,0,0,1-.88-2.27V30.35h1.64v5.59a1.86,1.86,0,0,0,.53,1.44,2.25,2.25,0,0,0,1.58.49,2.93,2.93,0,0,0,2.59-1.47v-6h1.63v8.56h-1.58V37.76a3.87,3.87,0,0,1-3.07,1.39A3.26,3.26,0,0,1,141,38.27Z"/><path class="cls-1" d="M150.58,38.47a1.75,1.75,0,0,1-.41-1.24V30.35h1.63v6.43a.8.8,0,0,0,.18.6.84.84,0,0,0,.61.17h.57v1.36h-1.39A1.52,1.52,0,0,1,150.58,38.47Zm4.12,0a1.71,1.71,0,0,1-.42-1.23V30.35h1.64v6.43a.8.8,0,0,0,.18.6.87.87,0,0,0,.62.17h.57v1.36h-1.41A1.53,1.53,0,0,1,154.7,38.46Z"/><path class="cls-1" d="M159.57,38.44a2.8,2.8,0,0,1,.1-4.09,3.88,3.88,0,0,1,2.53-.77,6.55,6.55,0,0,1,2.85.6v-.66a2,2,0,0,0-.6-1.61,3.13,3.13,0,0,0-2-.5,8.29,8.29,0,0,0-1.5.14,5.52,5.52,0,0,0-1.28.4V30.67a5.64,5.64,0,0,1,1.35-.4,9.72,9.72,0,0,1,1.67-.16,4.33,4.33,0,0,1,3,.91,3.19,3.19,0,0,1,1,2.47v5.42h-1.63V35.47a5.89,5.89,0,0,0-2.67-.59,2.53,2.53,0,0,0-1.53.38,1.4,1.4,0,0,0-.49,1.16c0,1,.63,1.45,1.88,1.45a2.76,2.76,0,0,0,1-.16V39a5.1,5.1,0,0,1-1.4.17A3.43,3.43,0,0,1,159.57,38.44Z"/><path class="cls-1" d="M168.73,33.39a1.42,1.42,0,0,1-.29-1V31.5h1.48v.61a.46.46,0,0,0,.11.36.58.58,0,0,0,.4.11h1.87v1.13h-2.58A1.25,1.25,0,0,1,168.73,33.39Zm0,4.37a1.43,1.43,0,0,1-.29-1v-.91h1.48v.61a.46.46,0,0,0,.11.36.58.58,0,0,0,.4.1h1.87v1.14h-2.58A1.29,1.29,0,0,1,168.73,37.76Z"/><path class="cls-1" d="M176,38.7a3.32,3.32,0,0,1-1.44-1.25,3.49,3.49,0,0,1-.5-1.85V30.35h1.63v5.22a2.26,2.26,0,0,0,.63,1.69,2.56,2.56,0,0,0,1.85.61,2.51,2.51,0,0,0,1.83-.61,2.23,2.23,0,0,0,.64-1.69V30.35h1.63V35.6a3.41,3.41,0,0,1-.51,1.85,3.24,3.24,0,0,1-1.43,1.25,5.43,5.43,0,0,1-4.33,0Z"/><path class="cls-1" d="M185.5,39a3.68,3.68,0,0,1-1.42-.58V37.06a6,6,0,0,0,1.51.63,6.35,6.35,0,0,0,1.57.21,3.51,3.51,0,0,0,1.52-.24.9.9,0,0,0,.47-.86,1,1,0,0,0-.23-.67,1.83,1.83,0,0,0-.68-.45,13.5,13.5,0,0,0-1.43-.48,5.88,5.88,0,0,1-2.09-1,2,2,0,0,1-.69-1.62,2.09,2.09,0,0,1,.91-1.82,4.34,4.34,0,0,1,2.5-.63,6.31,6.31,0,0,1,1.57.19,4.36,4.36,0,0,1,1.26.48v1.35A4.71,4.71,0,0,0,189,31.6a5.37,5.37,0,0,0-1.44-.19c-1.28,0-1.92.38-1.92,1.15a.94.94,0,0,0,.26.69,2,2,0,0,0,.71.42c.29.11.78.27,1.48.47a7.66,7.66,0,0,1,1.6.66,2.07,2.07,0,0,1,.81.83,2.66,2.66,0,0,1,.24,1.19,2,2,0,0,1-.86,1.69,4.37,4.37,0,0,1-2.61.64A8.61,8.61,0,0,1,185.5,39Z"/><path class="cls-1" d="M183.52,28h6.91v1.11h-6.91Z"/><path class="cls-1" d="M192.52,30.35h1.64v3.78l4.14-3.78h1.9l-2.33,2.13a3.08,3.08,0,0,1,1.83,1.07,3.33,3.33,0,0,1,.52,2v3.39h-1.63V35.62a2.33,2.33,0,0,0-.39-1.46,2.28,2.28,0,0,0-1.36-.7l-2.68,2.44v3h-1.64Z"/><path class="cls-1" d="M205.31,33.38a2.2,2.2,0,0,0-.42-1.5,1.92,1.92,0,0,0-1.47-.47,4.24,4.24,0,0,0-1.92.45V30.58a4.33,4.33,0,0,1,1-.33,5.71,5.71,0,0,1,1.22-.14,3.13,3.13,0,0,1,2.42.87,3.62,3.62,0,0,1,.8,2.51v5.42h-1.63Z"/><path class="cls-1" d="M210.17,39a3.68,3.68,0,0,1-1.42-.58V37.06a6.16,6.16,0,0,0,1.51.63,6.36,6.36,0,0,0,1.58.21,3.54,3.54,0,0,0,1.52-.24.91.91,0,0,0,.46-.86,1,1,0,0,0-.22-.67,1.91,1.91,0,0,0-.68-.45,14.76,14.76,0,0,0-1.44-.48,6,6,0,0,1-2.09-1,2,2,0,0,1-.69-1.62,2.09,2.09,0,0,1,.91-1.82,4.34,4.34,0,0,1,2.5-.63,6.25,6.25,0,0,1,1.57.19,4.36,4.36,0,0,1,1.26.48v1.35a4.57,4.57,0,0,0-1.25-.53,5.37,5.37,0,0,0-1.44-.19c-1.28,0-1.92.38-1.92,1.15a.9.9,0,0,0,.27.69,2,2,0,0,0,.7.42c.29.11.79.27,1.48.47a7.44,7.44,0,0,1,1.6.66,2.1,2.1,0,0,1,.82.83,2.66,2.66,0,0,1,.24,1.19,2,2,0,0,1-.87,1.69,4.33,4.33,0,0,1-2.61.64A8.61,8.61,0,0,1,210.17,39Z"/><path class="cls-1" d="M216.88,31.42h1.63l2,6.21a3.12,3.12,0,0,0,2.32-.83,3.23,3.23,0,0,0,.82-2.35,3.86,3.86,0,0,0-.56-2.27,2.07,2.07,0,0,0-1.8-.77,4.71,4.71,0,0,0-1.12.14V30.29a5.16,5.16,0,0,1,1.4-.18,3.44,3.44,0,0,1,2.78,1.15,4.84,4.84,0,0,1,1,3.19,4.6,4.6,0,0,1-.6,2.4,4,4,0,0,1-1.62,1.53,4.82,4.82,0,0,1-2.28.53h-1.53Z"/><path class="cls-1" d="M230.11,33.38a2.2,2.2,0,0,0-.42-1.5,1.92,1.92,0,0,0-1.47-.47,4.24,4.24,0,0,0-1.92.45V30.58a4.17,4.17,0,0,1,1-.33,5.71,5.71,0,0,1,1.22-.14,3.13,3.13,0,0,1,2.42.87,3.62,3.62,0,0,1,.8,2.51v5.42h-1.63Z"/><path class="cls-1" d="M234.69,38.27a3.08,3.08,0,0,1-.87-2.27V30.35h1.63v5.59a1.83,1.83,0,0,0,.54,1.44,2.22,2.22,0,0,0,1.57.49,2.94,2.94,0,0,0,2.6-1.47v-6h1.63v8.56H240.2V37.76a3.86,3.86,0,0,1-3.07,1.39A3.27,3.27,0,0,1,234.69,38.27Z"/><path class="cls-1" d="M77.52,60.35h1.63l1.55,6.27,1.86-6.27h1.25l1.84,6.27,1.56-6.27h1.64l-2.39,8.56H85.08l-1.9-6.43-1.92,6.43H79.89Z"/><path class="cls-1" d="M84.36,58.74a1.48,1.48,0,0,1-.31-1v-.83h1.47v.64a.51.51,0,0,0,.1.37A.62.62,0,0,0,86,58h3.78v1.11H85.36A1.29,1.29,0,0,1,84.36,58.74Z"/><path class="cls-1" d="M91.24,68.06a4.31,4.31,0,0,1-1.11-3.2,7.61,7.61,0,0,1,.37-2.52,3.62,3.62,0,0,1,1.07-1.65,2.32,2.32,0,0,1,1.56-.58,1.8,1.8,0,0,1,1.7,1,1.69,1.69,0,0,1,.78-.74,2.78,2.78,0,0,1,1.19-.24,1.9,1.9,0,0,1,1.63.7A3.05,3.05,0,0,1,99,62.7v3.7a2.81,2.81,0,0,0,2.43,1.47,2,2,0,0,0,1.49-.48,2,2,0,0,0,.48-1.45V60.35H105V66a3.17,3.17,0,0,1-.82,2.28,3.06,3.06,0,0,1-2.33.87,3.88,3.88,0,0,1-1.57-.33,3.53,3.53,0,0,1-1.34-1v1.12H97.34V62.82a2.14,2.14,0,0,0-.21-1.08.82.82,0,0,0-.75-.33.94.94,0,0,0-.7.25,1.4,1.4,0,0,0-.37.74h-1q-.18-1-.93-1a1.34,1.34,0,0,0-1.25,1,6.74,6.74,0,0,0-.4,2.46c0,2,.92,3,2.74,3a3.75,3.75,0,0,0,1.12-.16V69a5,5,0,0,1-1.39.17A4.08,4.08,0,0,1,91.24,68.06Z"/><path class="cls-1" d="M107.92,68.27a3.08,3.08,0,0,1-.87-2.27V60.35h1.63v5.59a1.83,1.83,0,0,0,.54,1.44,2.25,2.25,0,0,0,1.58.49,2.93,2.93,0,0,0,2.59-1.47V60.35H115v8.56h-1.58V67.76a3.88,3.88,0,0,1-3.08,1.39A3.29,3.29,0,0,1,107.92,68.27Z"/><path class="cls-1" d="M120.11,63.38a2.22,2.22,0,0,0-.42-1.5,1.9,1.9,0,0,0-1.47-.47,4.24,4.24,0,0,0-1.92.45V60.58a4.33,4.33,0,0,1,1-.33,5.71,5.71,0,0,1,1.22-.14,3.13,3.13,0,0,1,2.42.87,3.62,3.62,0,0,1,.8,2.51v5.42h-1.63Z"/><path class="cls-1" d="M123.82,62.1a1.75,1.75,0,0,1,.45-1.3,1.72,1.72,0,0,1,1.28-.45h1.26v1.38h-.57a.87.87,0,0,0-.62.18.91.91,0,0,0-.18.63v4L127.58,63h.71l2.14,3.49V60.35H132v8.56h-1.47l-2.64-4.3-2.64,4.3h-1.47Z"/><path class="cls-1" d="M134.64,68.44a2.5,2.5,0,0,1-.84-2,2.55,2.55,0,0,1,.94-2.07,3.91,3.91,0,0,1,2.54-.77,6.54,6.54,0,0,1,2.84.6v-.66a2,2,0,0,0-.59-1.61,3.19,3.19,0,0,0-2-.5,8.29,8.29,0,0,0-1.5.14,5.68,5.68,0,0,0-1.28.4V60.67a5.64,5.64,0,0,1,1.35-.4,9.72,9.72,0,0,1,1.67-.16,4.36,4.36,0,0,1,3,.91,3.19,3.19,0,0,1,1,2.47v5.42h-1.64V65.47a5.83,5.83,0,0,0-2.67-.59,2.53,2.53,0,0,0-1.53.38,1.4,1.4,0,0,0-.48,1.16c0,1,.62,1.45,1.87,1.45a2.86,2.86,0,0,0,1-.16V69a5.23,5.23,0,0,1-1.41.17A3.39,3.39,0,0,1,134.64,68.44Z"/><path class="cls-1" d="M134.83,58h6.91v1.11h-6.91Z"/><path class="cls-1" d="M144.61,68.06a4.31,4.31,0,0,1-1.09-3.2,7.09,7.09,0,0,1,.4-2.52A3.73,3.73,0,0,1,145,60.69a2.43,2.43,0,0,1,1.6-.58,1.76,1.76,0,0,1,1.71,1,1.67,1.67,0,0,1,.81-.74,3,3,0,0,1,1.22-.24,2,2,0,0,1,1.65.71,3,3,0,0,1,.56,1.88v6.21h-1.64V62.82a2,2,0,0,0-.22-1.07.85.85,0,0,0-.77-.34,1.09,1.09,0,0,0-1.13,1h-1a1.45,1.45,0,0,0-.31-.74.87.87,0,0,0-.67-.25,1.39,1.39,0,0,0-1.22.89,5.54,5.54,0,0,0-.47,2.56,3.29,3.29,0,0,0,.67,2.28,2.65,2.65,0,0,0,2.06.73,3.61,3.61,0,0,0,1.12-.16V69a5,5,0,0,1-1.39.17A4.08,4.08,0,0,1,144.61,68.06Z"/><path class="cls-1" d="M154.32,67.55H155a.77.77,0,0,0,.59-.17.9.9,0,0,0,.16-.63V63.58l-1.12-1.29a5.59,5.59,0,0,1,1.92-1.62,5.77,5.77,0,0,1,2.61-.56,4.42,4.42,0,0,1,2.93.87,3.06,3.06,0,0,1,1,2.44v5.49h-1.63V63.55a2.06,2.06,0,0,0-.59-1.62,2.58,2.58,0,0,0-1.75-.52,4.23,4.23,0,0,0-1.53.25,3.33,3.33,0,0,0-1.19.8l1,1.11v3.66a1.71,1.71,0,0,1-.42,1.23,1.6,1.6,0,0,1-1.23.45h-1.4Z"/><path class="cls-1" d="M159.09,58.74a1.48,1.48,0,0,1-.31-1v-.83h1.47v.64a.51.51,0,0,0,.11.37.62.62,0,0,0,.39.09h3.77v1.11h-4.43A1.29,1.29,0,0,1,159.09,58.74Z"/><path class="cls-1" d="M172.22,68.28a3.18,3.18,0,0,1-.83-2.28V63.55a2.15,2.15,0,0,0-.54-1.62,2.24,2.24,0,0,0-1.64-.52,3.83,3.83,0,0,0-1.45.25,3.46,3.46,0,0,0-1.16.85l.69,1.07V66.3a2.24,2.24,0,0,0,.15,1c.09.17.31.25.65.25h.9v1.36h-1.7a1.55,1.55,0,0,1-1.21-.45,1.71,1.71,0,0,1-.42-1.23V63.58l-.8-1.29a6,6,0,0,1,1.89-1.63,5.25,5.25,0,0,1,2.46-.55A4.11,4.11,0,0,1,172,61a3.15,3.15,0,0,1,1,2.44v2.52a1.72,1.72,0,0,0,2,1.93,2.69,2.69,0,0,0,1.4-.37,2.82,2.82,0,0,0,1-1.1V60.35H179v8.56h-1.57V67.79a3.53,3.53,0,0,1-2.93,1.36A3.07,3.07,0,0,1,172.22,68.28Z"/><path class="cls-1" d="M181.2,65.36a2,2,0,0,1,.23-1,9.31,9.31,0,0,1,.68-1.09,4.86,4.86,0,0,0,.42-.63,1,1,0,0,0,.14-.46v0a1.49,1.49,0,0,1-.75.17c-.75,0-1.12-.41-1.12-1.23v-.77H182v.56a.52.52,0,0,0,.12.38.55.55,0,0,0,.4.12.69.69,0,0,0,.52-.21v-.85h1.27V61a2.45,2.45,0,0,1,1-.67,3.71,3.71,0,0,1,1.28-.23q2.49,0,2.49,2.85v5.95h-1.63V62.78a1.54,1.54,0,0,0-.3-1,1.17,1.17,0,0,0-1-.34,2.4,2.4,0,0,0-2,1,2.58,2.58,0,0,1-.24.63c-.09.18-.24.42-.43.72a6.46,6.46,0,0,0-.47.83,1.86,1.86,0,0,0-.15.77v3.53H181.2Z"/><path class="cls-1" d="M185.23,58.18c0-.84.45-1.25,1.36-1.25h3.53V58h-2.89a.58.58,0,0,0-.4.11.55.55,0,0,0-.11.4v.58h-1.49Z"/><path class="cls-1" d="M191.91,68.06a4.31,4.31,0,0,1-1.1-3.2,5.35,5.35,0,0,1,.57-2.54A3.94,3.94,0,0,1,193,60.68a5.24,5.24,0,0,1,2.52-.57,4.43,4.43,0,0,1,3.29,1.07,3.73,3.73,0,0,1,1,2.71v5h-1.63v-5q0-2.46-2.7-2.46a2.89,2.89,0,0,0-2.24.89,3.65,3.65,0,0,0-.82,2.56,3.24,3.24,0,0,0,.69,2.28,2.67,2.67,0,0,0,2,.73,3.7,3.7,0,0,0,1.12-.16V69a5.05,5.05,0,0,1-1.4.17A4.06,4.06,0,0,1,191.91,68.06Z"/><path class="cls-1" d="M192.92,58h6.92v1.11h-6.92Z"/><path class="cls-1" d="M202,64.21h1.62l.83,3.42a3.57,3.57,0,0,0,2.49-.84,3,3,0,0,0,.94-2.33,3.08,3.08,0,0,0-.77-2.33,3.64,3.64,0,0,0-2.53-.72,9,9,0,0,0-1.62.15,5.91,5.91,0,0,0-1.39.41V60.69a6.59,6.59,0,0,1,1.45-.43,10.08,10.08,0,0,1,1.75-.15,5.11,5.11,0,0,1,3.51,1.09,4.68,4.68,0,0,1,.6,5.54,4.45,4.45,0,0,1-1.73,1.6,5.16,5.16,0,0,1-2.41.57H203.2Z"/><path class="cls-1" d="M202.32,58h6.91v1.11h-6.91Z"/><path class="cls-1" d="M211.32,60.35h1.57V61.5a4.07,4.07,0,0,1,1.47-1,4.42,4.42,0,0,1,1.7-.35,3.17,3.17,0,0,1,2.4.87,3.07,3.07,0,0,1,.83,2.22v5.71h-1.63V63.28a1.84,1.84,0,0,0-.5-1.38,2.08,2.08,0,0,0-1.53-.49A3,3,0,0,0,213,62.86v6h-1.64Z"/><path class="cls-1" d="M215.28,58.74a1.53,1.53,0,0,1-.31-1v-.83h1.47v.64a.51.51,0,0,0,.11.37.62.62,0,0,0,.39.09h3.77v1.11h-4.43A1.3,1.3,0,0,1,215.28,58.74Z"/><path class="cls-1" d="M221.89,68.44a2.8,2.8,0,0,1,.1-4.09,3.88,3.88,0,0,1,2.53-.77,6.55,6.55,0,0,1,2.85.6v-.66a2,2,0,0,0-.6-1.61,3.13,3.13,0,0,0-2-.5,8.29,8.29,0,0,0-1.5.14A5.68,5.68,0,0,0,222,62V60.67a5.64,5.64,0,0,1,1.35-.4,9.72,9.72,0,0,1,1.67-.16,4.33,4.33,0,0,1,3,.91,3.19,3.19,0,0,1,1,2.47v5.42h-1.63V65.47a5.89,5.89,0,0,0-2.67-.59,2.53,2.53,0,0,0-1.53.38,1.4,1.4,0,0,0-.49,1.16c0,1,.63,1.45,1.88,1.45a2.76,2.76,0,0,0,1-.16V69a5.1,5.1,0,0,1-1.4.17A3.37,3.37,0,0,1,221.89,68.44Z"/><line class="cls-2" x1="65" y1="50" x2="242" y2="50"/></svg>