<svg width="121" height="121" viewBox="0 0 121 121" fill="none" xmlns="http://www.w3.org/2000/svg">
<g clip-path="url(#clip0)">
<path d="M31.0245 33.0322L20.6282 33.8354C17.7353 34.059 15.1589 35.5752 13.559 37.9951L1.56921 56.129C0.355858 57.9641 0.162969 60.2608 1.05288 62.2726C1.94303 64.2845 3.77232 65.6865 5.94613 66.0233L15.4652 67.4975C17.692 55.6804 23.0226 43.8924 31.0245 33.0322Z" fill="black"/>
<path d="M53.6282 105.661L55.1026 115.18C55.4394 117.353 56.8414 119.183 58.8531 120.073C59.69 120.443 60.5759 120.626 61.4574 120.626C62.6956 120.626 63.9251 120.265 64.9969 119.556L83.1313 107.567C85.5512 105.967 87.0674 103.39 87.2905 100.498L88.0937 90.1012C77.2333 98.1034 65.4455 103.434 53.6282 105.661Z" fill="black"/>
<path d="M50.0481 99.0626C50.3786 99.0626 50.7109 99.0354 51.0426 98.9801C55.9935 98.1523 60.7653 96.7578 65.3173 94.9325L26.1934 55.8086C24.3681 60.3604 22.9736 65.1322 22.1458 70.0833C21.8195 72.035 22.4741 74.0231 23.8731 75.4223L45.7036 97.2528C46.8651 98.4141 48.4328 99.0626 50.0481 99.0626Z" fill="black"/>
<path d="M110.932 53.8293C120.506 35.3199 120.86 15.7601 120.36 6.58673C120.188 3.44355 117.683 0.937632 114.539 0.766305C113.046 0.684743 111.275 0.625916 109.28 0.625916C99.0225 0.625916 82.7919 2.17958 67.2966 10.1944C54.9821 16.564 38.8345 30.5891 29.3077 49.0207C29.4202 49.1086 29.5302 49.2019 29.6338 49.3055L71.8209 91.4926C71.9245 91.5962 72.0176 91.7059 72.1054 91.8184C90.537 82.2914 104.562 66.1438 110.932 53.8293ZM70.2726 25.9945C77.1259 19.1412 88.2777 19.1405 95.1314 25.9945C98.4516 29.3144 100.28 33.7288 100.28 38.424C100.28 43.1192 98.4516 47.5336 95.1314 50.8535C91.7051 54.2798 87.2028 55.9933 82.7021 55.9938C78.2001 55.994 73.6999 54.2807 70.2726 50.8535C66.9525 47.5336 65.1239 43.1192 65.1239 38.424C65.1239 33.7288 66.9525 29.3144 70.2726 25.9945Z" fill="black"/>
<path d="M75.2442 45.8816C79.3563 49.9937 86.0477 49.994 90.1598 45.8816C92.1518 43.8894 93.2489 41.241 93.2489 38.4238C93.2489 35.6066 92.1518 32.9582 90.1598 30.9662C88.1039 28.91 85.403 27.8821 82.702 27.8821C80.0013 27.8821 77.3004 28.91 75.2444 30.9662C73.2525 32.9582 72.1552 35.6066 72.1552 38.4238C72.1552 41.241 73.2523 43.8897 75.2442 45.8816Z" fill="black"/>
<path d="M4.08712 99.5171C4.98689 99.5171 5.88665 99.1739 6.5729 98.4872L18.051 87.0092C19.4239 85.6362 19.4239 83.4103 18.051 82.0374C16.6782 80.6644 14.4521 80.6644 13.0792 82.0374L1.60111 93.5154C0.228138 94.8884 0.228138 97.1142 1.60111 98.4872C2.28759 99.1737 3.18736 99.5171 4.08712 99.5171Z" fill="black"/>
<path d="M28.5699 92.5562C27.1972 91.1832 24.9711 91.1832 23.5981 92.5562L1.53055 114.624C0.157582 115.997 0.157582 118.223 1.53055 119.596C2.21703 120.282 3.1168 120.625 4.01657 120.625C4.91633 120.625 5.8161 120.282 6.50235 119.595L28.5697 97.528C29.9429 96.155 29.9429 93.9292 28.5699 92.5562Z" fill="black"/>
<path d="M34.1167 103.075L22.6389 114.553C21.2659 115.926 21.2659 118.152 22.6389 119.525C23.3254 120.211 24.2251 120.555 25.1247 120.555C26.0242 120.555 26.9242 120.212 27.6104 119.525L39.0885 108.047C40.4615 106.674 40.4615 104.448 39.0885 103.075C37.7158 101.702 35.4897 101.702 34.1167 103.075Z" fill="black"/>
</g>
<defs>
<clipPath id="clip0">
<rect width="120" height="120" fill="white" transform="translate(0.5 0.625916)"/>
</clipPath>
</defs>
</svg>
