<svg width="120" height="106" viewBox="0 0 120 106" fill="none" xmlns="http://www.w3.org/2000/svg">
<path d="M60 41.7161C71.2614 41.7161 80.3906 32.5869 80.3906 21.3254C80.3906 10.064 71.2614 0.934814 60 0.934814C48.7386 0.934814 39.6094 10.064 39.6094 21.3254C39.6094 32.5869 48.7386 41.7161 60 41.7161Z" fill="black"/>
<path d="M101.25 41.7158C108.369 41.7158 114.141 35.9445 114.141 28.8252C114.141 21.7059 108.369 15.9346 101.25 15.9346C94.1307 15.9346 88.3594 21.7059 88.3594 28.8252C88.3594 35.9445 94.1307 41.7158 101.25 41.7158Z" fill="black"/>
<path d="M18.75 41.7158C25.8693 41.7158 31.6406 35.9445 31.6406 28.8252C31.6406 21.7059 25.8693 15.9346 18.75 15.9346C11.6307 15.9346 5.85938 21.7059 5.85938 28.8252C5.85938 35.9445 11.6307 41.7158 18.75 41.7158Z" fill="black"/>
<path d="M31.4508 53.2918C26.3766 49.1345 21.7812 49.6848 15.9141 49.6848C7.13906 49.6848 0 56.7817 0 65.5028V91.0989C0 94.8864 3.09141 97.9661 6.89297 97.9661C23.3053 97.9661 21.3281 98.263 21.3281 97.2582C21.3281 79.1209 19.1798 65.8199 31.4508 53.2918Z" fill="black"/>
<path d="M65.5805 49.7783C55.3327 48.9236 46.4252 49.7882 38.7422 56.1299C25.8851 66.4283 28.3594 80.2946 28.3594 97.258C28.3594 101.746 32.0109 105.466 36.5672 105.466C86.0395 105.466 88.0085 107.062 90.9422 100.565C91.9043 98.368 91.6406 99.0662 91.6406 78.0486C91.6406 61.355 77.186 49.7783 65.5805 49.7783Z" fill="black"/>
<path d="M104.086 49.6845C98.1867 49.6845 93.6166 49.1399 88.5492 53.2916C100.729 65.7266 98.6719 78.1201 98.6719 97.258C98.6719 98.2691 97.0305 97.9658 112.861 97.9658C116.798 97.9658 120 94.7759 120 90.8548V65.5025C120 56.7814 112.861 49.6845 104.086 49.6845Z" fill="black"/>
</svg>
