<svg width="200" height="201" viewBox="0 0 200 201" fill="none" xmlns="http://www.w3.org/2000/svg">
<g clip-path="url(#clip0)">
<path d="M108.583 15.5971L17 1.68042C12.75 1.01375 8.41667 2.18042 5.16667 4.93042C1.91667 7.76375 0 11.8471 0 16.0971V191.68C0 196.264 3.75 200.014 8.33333 200.014H35.4167V156.264C35.4167 148.18 41.9167 141.68 50 141.68H70.8333C78.9167 141.68 85.4167 148.18 85.4167 156.264V200.014H120.833V30.0137C120.833 22.8471 115.667 16.7638 108.583 15.5971ZM45.8333 122.93H33.3333C29.8833 122.93 27.0833 120.13 27.0833 116.68C27.0833 113.23 29.8833 110.43 33.3333 110.43H45.8333C49.2833 110.43 52.0833 113.23 52.0833 116.68C52.0833 120.13 49.2833 122.93 45.8333 122.93ZM45.8333 97.9304H33.3333C29.8833 97.9304 27.0833 95.1304 27.0833 91.6804C27.0833 88.2304 29.8833 85.4304 33.3333 85.4304H45.8333C49.2833 85.4304 52.0833 88.2304 52.0833 91.6804C52.0833 95.1304 49.2833 97.9304 45.8333 97.9304ZM45.8333 72.9304H33.3333C29.8833 72.9304 27.0833 70.1304 27.0833 66.6804C27.0833 63.2304 29.8833 60.4304 33.3333 60.4304H45.8333C49.2833 60.4304 52.0833 63.2304 52.0833 66.6804C52.0833 70.1304 49.2833 72.9304 45.8333 72.9304ZM45.8333 47.9304H33.3333C29.8833 47.9304 27.0833 45.1304 27.0833 41.6804C27.0833 38.2304 29.8833 35.4304 33.3333 35.4304H45.8333C49.2833 35.4304 52.0833 38.2304 52.0833 41.6804C52.0833 45.1304 49.2833 47.9304 45.8333 47.9304ZM87.5 122.93H75C71.55 122.93 68.75 120.13 68.75 116.68C68.75 113.23 71.55 110.43 75 110.43H87.5C90.95 110.43 93.75 113.23 93.75 116.68C93.75 120.13 90.95 122.93 87.5 122.93ZM87.5 97.9304H75C71.55 97.9304 68.75 95.1304 68.75 91.6804C68.75 88.2304 71.55 85.4304 75 85.4304H87.5C90.95 85.4304 93.75 88.2304 93.75 91.6804C93.75 95.1304 90.95 97.9304 87.5 97.9304ZM87.5 72.9304H75C71.55 72.9304 68.75 70.1304 68.75 66.6804C68.75 63.2304 71.55 60.4304 75 60.4304H87.5C90.95 60.4304 93.75 63.2304 93.75 66.6804C93.75 70.1304 90.95 72.9304 87.5 72.9304ZM87.5 47.9304H75C71.55 47.9304 68.75 45.1304 68.75 41.6804C68.75 38.2304 71.55 35.4304 75 35.4304H87.5C90.95 35.4304 93.75 38.2304 93.75 41.6804C93.75 45.1304 90.95 47.9304 87.5 47.9304Z" fill="black"/>
<path d="M188.5 90.3635L129.167 77.9385V200.014H185.417C193.458 200.014 200 193.472 200 185.43V104.613C200 97.7301 195.308 91.8718 188.5 90.3635ZM168.75 175.013H156.25C152.8 175.013 150 172.213 150 168.763C150 165.313 152.8 162.513 156.25 162.513H168.75C172.2 162.513 175 165.313 175 168.763C175 172.213 172.2 175.013 168.75 175.013ZM168.75 150.013H156.25C152.8 150.013 150 147.213 150 143.763C150 140.313 152.8 137.513 156.25 137.513H168.75C172.2 137.513 175 140.313 175 143.763C175 147.213 172.2 150.013 168.75 150.013ZM168.75 125.013H156.25C152.8 125.013 150 122.213 150 118.763C150 115.313 152.8 112.513 156.25 112.513H168.75C172.2 112.513 175 115.313 175 118.763C175 122.213 172.2 125.013 168.75 125.013Z" fill="black"/>
</g>
<defs>
<clipPath id="clip0">
<rect width="200" height="200" fill="white" transform="translate(0 0.0136719)"/>
</clipPath>
</defs>
</svg>
